<svg width="16" height="16" viewBox="0 0 16 16" fill="none" xmlns="http://www.w3.org/2000/svg">
<path d="M11.2824 13.9416H1.416C0.6352 13.9416 0 13.3064 0 12.5256V6.77684C0 5.99604 0.6352 5.36084 1.416 5.36084H2.1504V6.64164H1.416C1.3416 6.64164 1.2808 6.70244 1.2808 6.77684V12.5256C1.2808 12.6 1.3416 12.6608 1.416 12.6608H11.2824C11.3568 12.6608 11.4176 12.6 11.4176 12.5256V11.7904H12.6984V12.5256C12.6984 13.3064 12.0632 13.9416 11.2824 13.9416Z" fill="#00ECFF"/>
<path d="M14.5839 10.6392H4.71751C3.93671 10.6392 3.30151 10.004 3.30151 9.22315V3.47435C3.30151 2.69355 3.93671 2.05835 4.71751 2.05835H14.5839C15.3647 2.05835 15.9999 2.69355 15.9999 3.47435V9.22315C15.9999 10.004 15.3647 10.6392 14.5839 10.6392ZM4.71751 3.33915C4.64311 3.33915 4.58231 3.39995 4.58231 3.47435V9.22315C4.58231 9.29755 4.64311 9.35835 4.71751 9.35835H14.5839C14.6583 9.35835 14.7191 9.29755 14.7191 9.22315V3.47435C14.7191 3.39995 14.6583 3.33915 14.5839 3.33915H4.71751Z" fill="#00ECFF"/>
<path d="M9.65121 8.68878C8.36161 8.68878 7.31201 7.63918 7.31201 6.34958C7.31201 5.05998 8.36161 4.01038 9.65121 4.01038C10.9408 4.01038 11.9904 5.05998 11.9904 6.34958C11.9904 7.63918 10.9408 8.68878 9.65121 8.68878ZM9.65121 5.27998C9.06161 5.27998 8.58161 5.75998 8.58161 6.34958C8.58161 6.93918 9.06161 7.41918 9.65121 7.41918C10.2408 7.41918 10.7208 6.93918 10.7208 6.34958C10.7208 5.75998 10.2408 5.27998 9.65121 5.27998Z" fill="#00ECFF"/>
</svg>
