<svg width="16" height="16" viewBox="0 0 16 16" fill="none" xmlns="http://www.w3.org/2000/svg">
<path d="M1.00942 1.1094C0.51567 1.24377 0.13442 1.64377 0.0312953 2.1344C0.00942031 2.2469 4.53126e-05 3.80315 0.00629531 7.2969L0.0156703 12.2969L0.0906703 12.4781C0.22817 12.825 0.537545 13.125 0.89692 13.2594L1.07817 13.3281L5.21255 13.3375L9.34379 13.3438V14.0438C9.34379 14.4313 9.35317 14.7688 9.36255 14.7969C9.38755 14.8594 9.53442 14.9375 9.62817 14.9375C9.67817 14.9375 9.84692 14.7906 10.1719 14.4688C10.4313 14.2125 10.6563 14 10.6719 14C10.6875 14 10.9125 14.2094 11.1719 14.4688C11.6969 14.9906 11.7407 15.0125 11.9094 14.8469L12 14.7563V14.05V13.3469L13.4625 13.3375C14.875 13.3281 14.9282 13.325 15.1032 13.2594C15.4625 13.125 15.7719 12.825 15.9094 12.4781L15.9844 12.2969L15.9938 7.2969C16 3.80315 15.9907 2.2469 15.9688 2.1344C15.8907 1.76877 15.6063 1.3844 15.2875 1.2219C14.9594 1.05315 15.35 1.06252 7.98442 1.06565C2.21567 1.06565 1.14692 1.0719 1.00942 1.1094ZM14.9032 1.64377C15.0938 1.70002 15.2875 1.8594 15.3844 2.04377L15.4532 2.1719L15.4625 7.14065C15.4719 12.6438 15.4844 12.2688 15.2657 12.5219C15.2063 12.5906 15.0907 12.6813 15.0094 12.7219L14.8594 12.7969L13.4313 12.8063L12 12.8156V12.1969V11.5813L12.1313 11.4469L12.2625 11.3125L12.7344 11.7813C12.9938 12.0375 13.2344 12.2531 13.2688 12.2531C13.4 12.2625 13.4563 12.2438 13.525 12.1688L13.5938 12.0906V10.2375C13.5938 8.45627 13.5969 8.37502 13.6563 8.2469C13.6907 8.1719 13.7188 8.0719 13.7188 8.02502C13.7188 7.92815 13.8188 7.84377 13.9313 7.84377C14.0375 7.84377 14.2282 7.73752 14.3344 7.61252C14.475 7.45627 14.5125 7.31252 14.4875 7.04377L14.4657 6.81565L14.5907 6.73752C14.8532 6.5719 14.9813 6.27815 14.9125 6.00627C14.8907 5.92502 14.8375 5.8094 14.7938 5.7469C14.7532 5.68752 14.7188 5.6219 14.7188 5.60315C14.7188 5.58127 14.7657 5.49377 14.8219 5.40315C14.9063 5.26565 14.9219 5.21252 14.9219 5.05002C14.9188 4.80002 14.8282 4.62815 14.625 4.48127L14.4688 4.36877L14.4875 4.11565C14.5032 3.88752 14.4969 3.84377 14.4313 3.71877C14.3407 3.54065 14.1344 3.3844 13.9594 3.3594C13.7688 3.33127 13.7469 3.3094 13.7157 3.13752C13.6782 2.94377 13.5657 2.77502 13.4 2.66565C13.2813 2.5844 13.2438 2.57815 12.975 2.57815H12.6813L12.5875 2.4469C12.4907 2.30315 12.2969 2.17502 12.1313 2.14065C11.9969 2.11252 11.75 2.17502 11.6219 2.26877C11.4938 2.36252 11.4282 2.36252 11.3 2.26565C10.9969 2.0344 10.5625 2.1219 10.3344 2.46565L10.2438 2.5969L10.0094 2.57815C9.54692 2.5344 9.3063 2.72815 9.20317 3.22502C9.19067 3.28752 9.16255 3.31565 9.10005 3.33127C8.84379 3.38752 8.78129 3.41565 8.66567 3.51565C8.48442 3.6719 8.42192 3.84377 8.44692 4.13752L8.46879 4.36877L8.3063 4.48752C8.01567 4.70627 7.92817 5.01565 8.07505 5.31877C8.1188 5.4094 8.17192 5.5094 8.1938 5.54065C8.22817 5.5844 8.22505 5.6094 8.1813 5.68127C8.05942 5.8719 8.00005 6.0219 8.00005 6.15002C8.00005 6.39065 8.1313 6.6094 8.3688 6.75627L8.46879 6.81877L8.45005 7.0594C8.43754 7.21565 8.4438 7.34377 8.46567 7.41565C8.5188 7.57502 8.72817 7.77502 8.88755 7.81565C9.16255 7.8844 9.17192 7.89065 9.19692 7.9844C9.21255 8.03752 9.25317 8.15002 9.28442 8.2344C9.34067 8.3844 9.34379 8.4969 9.33755 10.5938L9.32817 12.7969H5.23442H1.14067L0.99067 12.7219C0.90942 12.6813 0.793795 12.5906 0.73442 12.5219C0.51567 12.2688 0.52817 12.6438 0.537545 7.14065L0.54692 2.1719L0.61567 2.0469C0.71567 1.86252 0.881295 1.71877 1.0688 1.65315C1.22817 1.5969 1.5188 1.5969 7.98755 1.59377C14.0094 1.59377 14.7563 1.60002 14.9032 1.64377ZM11.0719 2.75627C11.1969 2.8344 11.2719 2.8594 11.425 2.86877C11.6063 2.88127 11.6407 2.8719 11.825 2.76877C11.9938 2.67502 12.0407 2.6594 12.0938 2.68752C12.1282 2.70627 12.1563 2.7344 12.1563 2.75315C12.1563 2.76877 12.2125 2.84377 12.2844 2.9219C12.4625 3.11252 12.6469 3.16565 12.9625 3.1094C13.1188 3.0844 13.1875 3.12502 13.1875 3.2469C13.1875 3.34065 13.2907 3.58127 13.3688 3.66877C13.4375 3.7469 13.7125 3.87502 13.8125 3.87502C13.95 3.87502 13.9688 3.92502 13.95 4.20315C13.9313 4.4219 13.9375 4.4719 13.9938 4.58127C14.0594 4.70627 14.2532 4.90627 14.3157 4.90627C14.3313 4.90627 14.3625 4.94065 14.3813 4.9844C14.4094 5.05002 14.4032 5.07815 14.3344 5.17815C14.225 5.33752 14.1875 5.4469 14.1875 5.60315C14.1875 5.7344 14.3063 6.0344 14.3719 6.07502C14.4469 6.1219 14.4 6.21565 14.2438 6.33127C14.1438 6.40627 14.05 6.5094 14.0063 6.59377C13.9407 6.71877 13.9344 6.76565 13.95 6.99065C13.9688 7.2844 13.9657 7.28752 13.7219 7.34377C13.4469 7.4094 13.2438 7.62502 13.2 7.90315C13.1875 7.97502 13.1625 8.04377 13.1438 8.05627C13.125 8.06877 12.9813 8.07815 12.825 8.07815C12.5688 8.07815 12.5313 8.08752 12.4157 8.16252C12.3438 8.2094 12.2407 8.31252 12.1875 8.39065C12.075 8.55315 12.0094 8.56565 11.8657 8.45627C11.6344 8.28127 11.3282 8.27502 11.0875 8.43752C11.0125 8.48752 10.9313 8.53127 10.9032 8.53127C10.875 8.53127 10.7969 8.4594 10.7313 8.36877C10.5563 8.13752 10.425 8.07815 10.0813 8.07815C9.77192 8.07815 9.78129 8.0844 9.71567 7.82815C9.65629 7.5969 9.4438 7.39377 9.2063 7.34065C9.10942 7.31877 9.0188 7.28752 9.0063 7.26877C8.9938 7.25002 8.98442 7.10627 8.98442 6.95002C8.98442 6.6969 8.97505 6.65627 8.90005 6.54065C8.85317 6.46877 8.7563 6.3719 8.6813 6.3219C8.6063 6.2719 8.5438 6.2094 8.53755 6.18127C8.53129 6.15627 8.57192 6.06565 8.62192 5.98127C8.78755 5.7219 8.78755 5.4594 8.62192 5.20627C8.51255 5.04377 8.52192 4.9594 8.65317 4.89065C8.77505 4.82815 8.92505 4.65002 8.96879 4.51252C8.9938 4.43752 9.00004 4.3219 8.98755 4.17815C8.96567 3.9344 8.99067 3.87502 9.12192 3.87502C9.1688 3.87502 9.28129 3.83752 9.37192 3.79377C9.56254 3.6969 9.70005 3.51252 9.73442 3.30315C9.7688 3.1094 9.79692 3.0844 9.9813 3.11252C10.3125 3.1594 10.5063 3.0969 10.6813 2.8844C10.8438 2.69065 10.875 2.65627 10.8969 2.65627C10.9063 2.65627 10.9875 2.70002 11.0719 2.75627ZM10.325 8.7094C10.4594 8.92502 10.6719 9.06252 10.8594 9.06252H10.9375V10.575V12.0906L11.0094 12.1719C11.0969 12.2781 11.25 12.2844 11.375 12.1906L11.4688 12.1219V13.0688V14.0125L11.1282 13.6781C10.8188 13.3719 10.7813 13.3438 10.6719 13.3438C10.5625 13.3438 10.525 13.3719 10.2157 13.6781L9.87504 14.0125V11.3219V8.62815L9.9938 8.61565C10.2469 8.59065 10.2469 8.59065 10.325 8.7094ZM12.9938 8.62502H13.0625V9.99065V11.3594L12.7188 11.0156C12.2594 10.5563 12.2719 10.5563 11.8125 11.0156L11.4688 11.3594V10.1C11.4688 9.4094 11.475 8.84377 11.4844 8.84377C11.4907 8.84377 11.5625 8.88752 11.6375 8.94377C11.9625 9.1719 12.3875 9.0719 12.6157 8.7094C12.6875 8.59377 12.7 8.58752 12.8063 8.60627C12.8719 8.61565 12.9532 8.62502 12.9938 8.62502Z" fill="#00ECFF"/>
<path d="M2.72813 3.21875C2.20313 3.29687 1.74375 3.74062 1.62813 4.275C1.60313 4.39062 1.59375 5.27812 1.59375 7.2125C1.59375 10.2187 1.59063 10.1531 1.76563 10.4969C1.87188 10.7094 2.12813 10.95 2.37188 11.0719L2.57813 11.1719L5.34063 11.1812L8.10313 11.1875L8.17813 11.1187C8.29375 11.0094 8.26875 10.7656 8.13438 10.7C8.10313 10.6844 6.8625 10.6656 5.375 10.6562L2.67188 10.6406L2.55938 10.5719C2.40313 10.475 2.2875 10.3531 2.20625 10.2031L2.14063 10.0781V7.20312V4.32812L2.23438 4.15937C2.33438 3.98125 2.44375 3.87812 2.64375 3.79062C2.75625 3.7375 2.95625 3.73437 5.32188 3.71875L7.88125 3.70312L7.94063 3.62812C8.02188 3.52812 8.01563 3.39687 7.925 3.29062L7.85 3.20312L5.36875 3.2C4.00625 3.19687 2.81875 3.20625 2.72813 3.21875Z" fill="#00ECFF"/>
<path d="M3.01558 4.89062C2.91558 4.9875 2.91558 5.125 3.01246 5.24063L3.08746 5.32812H5.05621H7.02496L7.10621 5.25312C7.21246 5.15313 7.21871 4.97813 7.11558 4.88125L7.04371 4.8125H5.06558H3.09058L3.01558 4.89062Z" fill="#00ECFF"/>
<path d="M3.01577 5.95312C2.9064 6.05937 2.91265 6.19687 3.02827 6.31562L3.1189 6.40625H5.04702C7.0814 6.40625 7.11577 6.40312 7.1689 6.26562C7.20952 6.15625 7.18765 6.02812 7.10952 5.95312L7.03452 5.875H5.06265H3.09077L3.01577 5.95312Z" fill="#00ECFF"/>
<path d="M3.0157 7.01564C2.87195 7.15626 2.9407 7.40626 3.13445 7.45314C3.17195 7.46251 4.07195 7.46564 5.13445 7.46251L7.06882 7.45314L7.12819 7.37814C7.21257 7.27501 7.20632 7.10939 7.10945 7.01564L7.03444 6.93751H5.06257H3.0907L3.0157 7.01564Z" fill="#00ECFF"/>
<path d="M3.93125 8.58125C3.84375 8.62813 3.83125 8.65625 3.79687 8.9C3.75937 9.19063 3.60625 9.36875 3.22812 9.55625C3.01562 9.66563 2.9375 9.75313 2.9375 9.88438C2.9375 10.0063 3.0625 10.125 3.19062 10.125C3.36875 10.125 3.74375 9.9125 3.975 9.68438L4.18437 9.475L4.25312 9.55C4.5375 9.85313 4.99062 9.95 5.25937 9.76875C5.3625 9.69688 5.36562 9.69688 5.47187 9.75C5.73125 9.88438 6.6375 10.0625 7.05625 10.0625C7.26875 10.0625 7.29375 10.0563 7.37812 9.97188C7.49375 9.85313 7.49687 9.74063 7.38125 9.62813C7.30312 9.54688 7.275 9.54063 6.9375 9.52188C6.70312 9.50938 6.44062 9.46875 6.1875 9.40625C5.70312 9.2875 5.63125 9.25938 5.56875 9.15938C5.4625 8.9875 5.4 8.9375 5.28125 8.9375C5.14062 8.9375 5.0375 9.0375 5.00937 9.2C5 9.26563 4.97187 9.325 4.95 9.33438C4.82187 9.38438 4.48125 9.07813 4.35937 8.79688C4.24687 8.54688 4.11562 8.47813 3.93125 8.58125Z" fill="#00ECFF"/>
<path d="M10.9999 3.51875C10.7124 3.57813 10.2718 3.80938 10.0405 4.01563C9.7968 4.23438 9.5843 4.55 9.46242 4.88125C9.3843 5.09688 9.36555 5.2 9.35305 5.5C9.3343 5.94063 9.3843 6.18438 9.56867 6.5625C9.67492 6.775 9.75305 6.88125 9.96867 7.09375C10.403 7.52813 10.8593 7.71875 11.4655 7.71875C11.8405 7.71875 12.0999 7.65938 12.428 7.49688C13.4374 6.99688 13.8812 5.71875 13.3937 4.70313C13.1687 4.22813 12.8562 3.9125 12.3905 3.6875C11.953 3.47813 11.4655 3.41875 10.9999 3.51875ZM11.7874 4.03438C12.0655 4.09063 12.3812 4.2625 12.5843 4.46563C13.2218 5.1 13.2187 6.10938 12.5812 6.73438C12.2593 7.05 11.9187 7.1875 11.4687 7.1875C11.0093 7.1875 10.678 7.05 10.3405 6.71875C10.0312 6.4125 9.87492 6.04375 9.87492 5.60938C9.87492 4.59688 10.8062 3.83125 11.7874 4.03438Z" fill="#00ECFF"/>
</svg>
