<svg width="16" height="16" viewBox="0 0 16 16" fill="none" xmlns="http://www.w3.org/2000/svg">
<g clip-path="url(#clip0_183_51)">
<path d="M5.84374 0.687549C4.88124 0.775048 3.84999 1.15317 3.06249 1.71255C2.52186 2.09692 1.94686 2.69692 1.58749 3.25005C0.13124 5.49067 0.43749 8.43755 2.32499 10.3313C2.77186 10.7813 3.43437 11.2469 3.89999 11.4407L4.04999 11.5032L5.42186 10.6375C6.17812 10.1594 6.88124 9.72505 6.98749 9.67192C7.39687 9.45317 7.87812 9.45317 8.32811 9.6688C8.54062 9.7688 8.63124 9.8438 9.12499 10.3313L9.68437 10.8844L9.86561 10.7469C9.96562 10.6719 10.1656 10.4907 10.3125 10.3438C12.45 8.21255 12.5656 4.8688 10.5812 2.58755C9.71562 1.5938 8.39687 0.887548 7.10936 0.721924C6.72812 0.671924 6.17499 0.659424 5.84374 0.687549ZM6.55937 3.06255C6.76249 3.16255 6.82499 3.3063 6.83749 3.67817L6.84999 3.9938L7.26561 4.0063C7.71874 4.01567 7.77499 4.03442 7.91874 4.2313C8.00937 4.35317 8.00937 4.64692 7.91874 4.7688C7.75937 4.98442 7.77187 4.9813 6.81249 5.00005C5.99687 5.01567 5.93749 5.0188 5.85312 5.0813C5.64687 5.2313 5.61249 5.50005 5.77187 5.68755C5.87499 5.81255 6.01249 5.8438 6.44374 5.8438C7.00312 5.8438 7.31562 5.96255 7.61874 6.29692C8.21874 6.95005 8.08437 7.9563 7.33437 8.44067C7.23749 8.50317 7.08749 8.57505 7.00312 8.59692L6.84999 8.63442L6.83749 8.96567C6.82499 9.34067 6.77812 9.46255 6.59374 9.58442C6.39687 9.7188 6.07187 9.6563 5.92812 9.4563C5.86874 9.37505 5.85624 9.3063 5.84374 9.01567L5.82811 8.67192L5.39999 8.6563C4.90624 8.63755 4.84687 8.61255 4.72499 8.36567C4.66562 8.25005 4.65624 8.1938 4.67187 8.09067C4.69999 7.92505 4.87187 7.7313 5.02499 7.68755C5.09062 7.67192 5.49062 7.6563 5.92499 7.6563C6.69062 7.6563 6.71249 7.65317 6.81562 7.58442C6.88437 7.53755 6.93749 7.46567 6.96874 7.3813C7.00937 7.26567 7.00937 7.23442 6.96874 7.1188C6.93749 7.03442 6.88437 6.96255 6.81562 6.91567C6.72187 6.85317 6.67186 6.8438 6.36249 6.8438C5.74374 6.8438 5.36874 6.70942 5.06249 6.38755C4.62812 5.92817 4.54687 5.2188 4.86874 4.68755C5.04686 4.40005 5.43749 4.11255 5.74374 4.04692L5.84374 4.02505V3.70005C5.84374 3.35317 5.86874 3.25942 6.00624 3.13442C6.15937 2.99067 6.36874 2.96255 6.55937 3.06255Z" fill="#00ECFF"/>
<path d="M12.4376 8.04068C12.2876 8.08756 12.0845 8.30006 12.0376 8.45631C11.9345 8.80943 12.0095 8.95631 12.5876 9.53756L13.047 10.0001L11.6876 11.3594L10.3282 12.7188L9.18759 11.5782C8.41572 10.8063 8.00947 10.4251 7.93134 10.3907C7.79384 10.3344 7.53447 10.3282 7.42197 10.3813C7.37822 10.4001 5.73447 11.4126 3.77197 12.6251C0.453215 14.6813 0.196965 14.8469 0.115715 14.9782C0.0657153 15.0563 0.0188403 15.1751 0.00946529 15.2469C-0.0561597 15.7438 0.471965 16.1469 0.921965 15.9407C0.990715 15.9094 1.66572 15.5001 2.42197 15.0313C3.17822 14.5626 4.10322 13.9907 4.48134 13.7594C4.85634 13.5251 5.70634 13.0001 6.36884 12.5876L7.57509 11.8407L8.79384 13.0563C9.94071 14.1969 10.0251 14.2751 10.1657 14.3094C10.3282 14.3501 10.4907 14.3313 10.6407 14.2594C10.6938 14.2344 11.4688 13.4782 12.3657 12.5844L14.0001 10.9563L14.4626 11.4126C15.0438 11.9907 15.1907 12.0657 15.5438 11.9626C15.7095 11.9126 15.9126 11.7094 15.9626 11.5438C16.0157 11.3594 16.0157 8.64068 15.9626 8.45631C15.9126 8.29068 15.7001 8.07818 15.5438 8.03443C15.3751 7.98756 12.5876 7.99381 12.4376 8.04068Z" fill="#00ECFF"/>
</g>
<defs>
<clipPath id="clip0_183_51">
<rect width="16" height="16" fill="white"/>
</clipPath>
</defs>
</svg>
