<svg width="16" height="16" viewBox="0 0 16 16" fill="none" xmlns="http://www.w3.org/2000/svg">
<path d="M7.26546 1.03423C6.29046 1.14048 5.28108 1.47798 4.42483 1.9811C3.81546 2.34048 3.09983 2.94985 2.63733 3.50298L2.43733 3.7436L2.32796 3.63735C2.14046 3.45923 1.86858 3.4561 1.67171 3.62798C1.51233 3.7686 1.49358 3.87173 1.50608 4.5686C1.51546 5.24048 1.52171 5.26548 1.73108 5.4186C1.81233 5.4811 1.85921 5.48423 2.49983 5.48423C3.25296 5.48423 3.25921 5.4811 3.41858 5.2686C3.51858 5.13423 3.50921 4.8561 3.39983 4.71235C3.35296 4.65298 3.27171 4.58423 3.22171 4.56235L3.12483 4.52485L3.21858 4.3936C3.44046 4.0936 3.75608 3.7561 4.07171 3.48423C5.25296 2.46235 6.69983 1.94673 8.21858 2.00923C10.3905 2.09985 12.2873 3.2936 13.303 5.21235C13.7217 6.00298 13.9342 6.7936 13.9967 7.79048C14.0217 8.2186 14.0436 8.2811 14.2311 8.4186C14.353 8.50923 14.6467 8.50923 14.7686 8.4186C14.9686 8.27173 14.9842 8.22173 14.9811 7.7561C14.9655 5.84048 13.9717 3.83423 12.4217 2.58423C11.4311 1.78423 10.3592 1.30298 9.10921 1.09048C8.66858 1.0186 7.69983 0.987354 7.26546 1.03423Z" fill="#00ECFF"/>
<path d="M4.62805 4.55C4.09992 4.69062 3.68742 5.1125 3.5468 5.64687C3.3468 6.41875 3.83742 7.2375 4.6343 7.45312C4.79367 7.49375 4.78742 7.49687 4.31242 7.49687C3.7843 7.5 3.58117 7.53437 3.30617 7.675C3.06555 7.79687 2.79992 8.06875 2.67492 8.31875C2.35305 8.95937 2.49992 9.48438 2.99992 9.48438C3.29367 9.48438 3.45305 9.32812 3.49992 9C3.52805 8.79062 3.58742 8.6875 3.73117 8.58125C3.81555 8.51875 3.85305 8.51562 4.99992 8.51562C6.1468 8.51562 6.1843 8.51875 6.26867 8.58125C6.41242 8.6875 6.4718 8.79062 6.49992 9C6.5468 9.32812 6.70617 9.48438 6.99992 9.48438C7.3843 9.48438 7.56867 9.18125 7.46867 8.70937C7.38117 8.2875 7.06242 7.8625 6.69367 7.675C6.41867 7.53437 6.21555 7.5 5.68742 7.49687C5.20617 7.49687 5.20305 7.49687 5.3718 7.45C6.16242 7.2375 6.65305 6.41562 6.45305 5.64687C6.24367 4.8375 5.41242 4.3375 4.62805 4.55ZM5.1968 5.54375C5.51867 5.67812 5.5968 6.09687 5.3468 6.34687C5.14367 6.55 4.85617 6.55 4.65305 6.34687C4.26555 5.9625 4.69367 5.33125 5.1968 5.54375Z" fill="#00ECFF"/>
<path d="M10.628 4.55C10.0999 4.69062 9.68742 5.1125 9.5468 5.64687C9.3468 6.41875 9.83742 7.2375 10.6343 7.45312C10.7937 7.49375 10.7874 7.49687 10.3124 7.49687C9.7843 7.5 9.58117 7.53437 9.30617 7.675C9.06555 7.79687 8.79992 8.06875 8.67492 8.31875C8.35305 8.95937 8.49992 9.48438 8.99992 9.48438C9.29367 9.48438 9.45305 9.32812 9.49992 9C9.52805 8.79062 9.58742 8.6875 9.73117 8.58125C9.81555 8.51875 9.85305 8.51562 10.9999 8.51562C12.1468 8.51562 12.1843 8.51875 12.2687 8.58125C12.4124 8.6875 12.4718 8.79062 12.4999 9C12.5468 9.32812 12.7062 9.48438 12.9999 9.48438C13.3843 9.48438 13.5687 9.18125 13.4687 8.70937C13.3812 8.2875 13.0624 7.8625 12.6937 7.675C12.4187 7.53437 12.2155 7.5 11.6874 7.49687C11.2062 7.49687 11.203 7.49687 11.3718 7.45C12.1624 7.2375 12.653 6.41562 12.453 5.64687C12.2437 4.8375 11.4124 4.3375 10.628 4.55ZM11.1968 5.54375C11.5187 5.67812 11.5968 6.09687 11.3468 6.34687C10.9968 6.7 10.4218 6.38437 10.5124 5.89062C10.5687 5.59687 10.9124 5.42187 11.1968 5.54375Z" fill="#00ECFF"/>
<path d="M1.29683 7.5437C1.16558 7.59995 1.03745 7.75933 1.01245 7.89683C0.984329 8.0437 1.02183 8.65308 1.0812 9.04683C1.50308 11.8031 3.53745 14.0656 6.2187 14.7625C6.9187 14.9437 7.23745 14.9812 8.01558 14.9812C8.58745 14.9812 8.77495 14.9687 9.12183 14.9093C10.85 14.6156 12.325 13.75 13.4562 12.3656L13.5531 12.2468L13.6687 12.3562C13.8593 12.5406 14.1312 12.5437 14.3281 12.3718C14.4875 12.2312 14.5062 12.1281 14.4937 11.4312C14.4843 10.7593 14.4781 10.7343 14.2687 10.5812C14.1875 10.5187 14.1406 10.5156 13.5 10.5156C12.8593 10.5156 12.8125 10.5187 12.7312 10.5812C12.5687 10.7 12.5156 10.8031 12.5156 10.9937C12.5156 11.2031 12.5968 11.3437 12.7687 11.4312L12.875 11.4843L12.6781 11.7343C12.3125 12.1968 11.8156 12.6531 11.3093 12.9937C11.0281 13.1812 10.4968 13.4687 10.4343 13.4687C10.4093 13.4656 10.3562 13.3937 10.3156 13.3031C10.2187 13.1 9.90933 12.7843 9.6937 12.675C9.4187 12.5343 9.2187 12.5 8.68745 12.4968C8.21245 12.4968 8.2062 12.4937 8.36558 12.4531C9.16558 12.2375 9.65308 11.4187 9.45308 10.6406C9.2437 9.84058 8.42495 9.3437 7.64683 9.54683C7.1062 9.68745 6.68745 10.1031 6.54683 10.6406C6.34683 11.4187 6.83433 12.2375 7.63433 12.4531C7.7937 12.4937 7.78745 12.4968 7.31245 12.4968C6.7812 12.5 6.5812 12.5343 6.3062 12.675C6.08745 12.7843 5.7812 13.0968 5.67495 13.3187L5.58745 13.4968L5.33433 13.3687C3.76245 12.5812 2.5812 11.1062 2.17808 9.43745C2.07495 9.00933 2.03433 8.73433 2.0062 8.22495C1.97808 7.7812 1.9562 7.7187 1.77495 7.58433C1.67183 7.5062 1.42183 7.48433 1.29683 7.5437ZM8.19683 10.5437C8.5187 10.6781 8.59683 11.0968 8.34683 11.3468C8.1437 11.55 7.8562 11.55 7.65308 11.3468C7.26558 10.9625 7.6937 10.3312 8.19683 10.5437ZM9.2187 13.5593C9.34995 13.6281 9.46245 13.7687 9.4187 13.8093C9.37808 13.85 8.94995 13.9312 8.5937 13.9687C8.0312 14.0281 7.4687 14 6.87495 13.8875C6.5187 13.8187 6.51245 13.8156 6.6187 13.6937C6.78433 13.5 6.7812 13.5 7.99995 13.5C9.02183 13.5 9.1187 13.5031 9.2187 13.5593Z" fill="#00ECFF"/>
</svg>
