<svg width="16" height="16" viewBox="0 0 16 16" fill="none" xmlns="http://www.w3.org/2000/svg">
<g clip-path="url(#clip0_118_86)">
<path d="M5.77103 12.3281C5.08546 12.709 4.14714 13.0812 3.12225 13.0526L2.98116 13.0491L2.97769 12.9081C2.95 11.8832 3.32134 10.9448 3.70221 10.2593C2.69724 11.4781 1.1625 13.5486 0.561768 15.4694C2.4817 14.8687 4.55311 13.3331 5.7719 12.3281H5.77103Z" fill="#00ECFF"/>
<path d="M6.54162 11.4574L4.57321 9.48901C4.22956 9.92528 3.29297 11.2514 3.27393 12.7567C4.78182 12.7385 6.10621 11.8011 6.54162 11.4574Z" fill="#00ECFF"/>
<path d="M12.1835 2.16328L13.7788 3.7586C13.7866 3.76553 13.7953 3.77245 13.8013 3.78111L14.2878 4.26759C15.5326 2.01699 15.903 0.514285 16.0009 0.000976562C15.4875 0.0996565 13.9831 0.47187 11.7351 1.71489L12.161 2.14077C12.1696 2.14683 12.1766 2.15549 12.1844 2.16414L12.1835 2.16328Z" fill="#00ECFF"/>
<path d="M3.49974 5.44228L0.136829 8.80433C-0.0354277 8.97658 -0.0215779 9.19125 0.0494024 9.33495C0.119517 9.47777 0.282252 9.61973 0.523759 9.58771L4.54886 9.05535L4.56011 9.05362L6.94661 11.4401L6.93709 11.5146L6.41339 15.4765C6.38136 15.718 6.52333 15.8799 6.66702 15.9508C6.81071 16.0218 7.02452 16.0357 7.19677 15.8634L10.5588 12.5014C10.577 12.2979 10.6099 11.4315 9.99703 10.372L9.94337 10.2793L10.0143 10.1988C11.9369 8.01489 13.2474 6.10015 14.1425 4.52733C14.126 4.5204 14.1104 4.51088 14.0974 4.49703L13.7122 4.11183C13.5893 4.31698 13.3573 4.69353 13.0379 5.16702C12.7973 5.52798 12.5056 5.94088 12.1844 6.37628C11.8616 6.81082 11.5058 7.26526 11.1344 7.70759C10.9457 7.92573 10.764 8.14992 10.5701 8.35767C10.3796 8.56801 10.1935 8.77663 10.0022 8.96793C9.81352 9.16182 9.63348 9.35053 9.45083 9.51846C9.26905 9.68725 9.10632 9.85518 8.93925 9.99281C8.77565 10.1339 8.62677 10.2637 8.49346 10.3789C8.35583 10.4871 8.23551 10.5823 8.13683 10.6602C7.9386 10.8151 7.82434 10.9034 7.82434 10.9034C7.82434 10.9034 7.93514 10.8117 8.12817 10.6498C8.22426 10.5684 8.34111 10.4706 8.47528 10.3581C8.60426 10.2395 8.74882 10.1053 8.90723 9.95819C9.0691 9.81536 9.22664 9.64224 9.40149 9.46912C9.57808 9.29599 9.75206 9.1021 9.93298 8.903C10.1174 8.70651 10.2957 8.4927 10.4783 8.27803C10.6644 8.06509 10.8384 7.83657 11.0185 7.61411C11.3734 7.16312 11.7127 6.70002 12.0191 6.25856C12.3247 5.81623 12.6008 5.39727 12.8276 5.03198C13.166 4.4927 13.3989 4.07894 13.4984 3.89889L12.0485 2.44899C11.8685 2.54767 11.4547 2.78139 10.9154 3.11984C10.5502 3.34663 10.1312 3.62276 9.68887 3.92832C9.24741 4.23475 8.78431 4.57407 8.33332 4.92897C8.10999 5.10902 7.88147 5.28301 7.6694 5.46912C7.45386 5.65176 7.24005 5.83008 7.04443 6.01445C6.84533 6.19537 6.65144 6.36935 6.47831 6.54594C6.30433 6.72166 6.1312 6.8792 5.98924 7.04021C5.84295 7.19861 5.70878 7.34317 5.58933 7.47215C5.4768 7.60632 5.37812 7.72317 5.29762 7.81926C5.13661 8.01229 5.04399 8.12309 5.04399 8.12309C5.04399 8.12309 5.13229 8.00969 5.28723 7.8106C5.36514 7.71192 5.45949 7.5916 5.56855 7.45397C5.68368 7.32153 5.81352 7.17178 5.95462 7.00818C6.09225 6.84111 6.26104 6.67838 6.42897 6.4966C6.5969 6.31396 6.78561 6.13304 6.9795 5.9452C7.1708 5.7539 7.37942 5.5678 7.58976 5.37736C7.79751 5.18346 8.02084 5.00082 8.23984 4.81298C8.6813 4.44163 9.13661 4.08587 9.57115 3.76299C10.0066 3.44098 10.4195 3.14927 10.7804 2.9095C11.253 2.59095 11.6304 2.3581 11.8356 2.23518L11.4686 1.86816C9.89662 2.76321 7.98448 4.07202 5.80573 5.98935L5.72523 6.06033L5.63261 6.00666C4.56704 5.39035 3.70575 5.42584 3.5032 5.44488L3.49974 5.44228ZM10.5943 5.46046C11.0687 5.93482 11.0687 6.70521 10.5943 7.17957C10.12 7.65392 9.34955 7.65392 8.8752 7.17957C8.40084 6.70521 8.40084 5.93482 8.8752 5.46046C9.34955 4.9861 10.12 4.9861 10.5943 5.46046Z" fill="#00ECFF"/>
<path d="M0.772167 13.7946C0.842282 13.6474 0.934037 13.5003 1.0154 13.3427C1.09591 13.1843 1.19891 13.0311 1.28807 12.8666C1.37983 12.7039 1.4837 12.5446 1.58152 12.3819C1.98229 11.737 2.4151 11.1103 2.74403 10.6403C3.07297 10.1702 3.30236 9.86035 3.30236 9.86035C3.30236 9.86035 3.22618 9.92008 3.10326 10.0361C2.98208 10.1529 2.80636 10.32 2.61073 10.5329C2.41683 10.7476 2.19437 11.003 1.97624 11.2921C1.75291 11.5777 1.53737 11.8989 1.32789 12.2243C1.1288 12.5559 0.935768 12.8926 0.781689 13.2215C0.623281 13.5487 0.499499 13.8655 0.406012 14.1399C0.314257 14.4161 0.255396 14.6507 0.220771 14.8169C0.184415 14.9822 0.167969 15.0765 0.167969 15.0765C0.167969 15.0765 0.209518 14.9891 0.27617 14.8342C0.334167 14.6775 0.443234 14.4628 0.56442 14.2049C0.623281 14.075 0.701187 13.9409 0.772167 13.7937V13.7946Z" fill="#00ECFF"/>
<path d="M1.88888 15.6236C2.16414 15.5302 2.48009 15.4064 2.80729 15.248C3.13709 15.0939 3.47295 14.9009 3.80448 14.7018C4.12995 14.4923 4.45109 14.2767 4.73674 14.0534C5.02586 13.8353 5.28121 13.6137 5.49589 13.4189C5.70969 13.2233 5.87589 13.0484 5.99275 12.9264C6.10874 12.8035 6.16847 12.7273 6.16847 12.7273C6.16847 12.7273 5.85858 12.9567 5.38855 13.2856C4.91852 13.6145 4.29182 14.0474 3.64694 14.4481C3.4842 14.5459 3.32493 14.6498 3.16219 14.7416C2.99773 14.8299 2.84451 14.9337 2.68611 15.0142C2.52856 15.0956 2.38141 15.1874 2.23426 15.2575C2.0871 15.3285 1.95293 15.4064 1.82309 15.4652C1.56427 15.5856 1.35046 15.6946 1.19379 15.7535C1.03971 15.8193 0.951416 15.8617 0.951416 15.8617C0.951416 15.8617 1.04577 15.8452 1.2111 15.8089C1.3773 15.7743 1.61188 15.7154 1.88801 15.6245L1.88888 15.6236Z" fill="#00ECFF"/>
</g>
<defs>
<clipPath id="clip0_118_86">
<rect width="16" height="16" fill="white"/>
</clipPath>
</defs>
</svg>
