<svg width="16" height="16" viewBox="0 0 16 16" fill="none" xmlns="http://www.w3.org/2000/svg">
<path d="M7.43746 1.46866C6.80308 1.73116 2.19371 3.79991 2.21246 3.81554C2.22496 3.83116 2.69996 4.04679 3.26558 4.29991C4.20933 4.71866 4.30308 4.75304 4.38746 4.72179C4.70933 4.60304 9.80621 2.32491 9.78746 2.30929C9.77496 2.29991 9.34371 2.10304 8.82808 1.87491C8.02183 1.51554 7.86558 1.45616 7.70308 1.44679C7.59996 1.44366 7.48121 1.45304 7.43746 1.46866Z" fill="#00ECFF"/>
<path d="M8.01567 3.84375C6.59067 4.47812 5.35942 5.02812 5.28442 5.0625L5.1438 5.13125L6.4063 5.69063L7.66567 6.25L10.3875 5.04375C11.8844 4.38125 13.1188 3.82812 13.1313 3.81562C13.1532 3.79688 10.7688 2.72187 10.6563 2.7C10.6313 2.69687 9.4438 3.20937 8.01567 3.84375Z" fill="#00ECFF"/>
<path d="M1.66252 7.69375L1.67189 11.0469L1.74064 11.1781C1.78127 11.25 1.85627 11.3438 1.91252 11.3875C1.99377 11.4469 7.27189 13.8125 7.32814 13.8125C7.33752 13.8125 7.34377 12.2437 7.34377 10.3281V6.84687L7.25939 6.8C7.06564 6.70312 1.72189 4.34375 1.69064 4.34375C1.66564 4.34375 1.65627 5.25 1.66252 7.69375Z" fill="#00ECFF"/>
<path d="M10.7906 5.59057L8 6.82807L8.00313 8.92182C8.00625 10.2468 8.01875 10.9468 8.03438 10.8281C8.15625 9.98745 8.52812 9.27495 9.15313 8.67807C10.0812 7.7937 11.3688 7.46557 12.625 7.79682C12.7938 7.84057 13.0813 7.95307 13.2906 8.0562L13.6562 8.24057V6.29057C13.6562 4.75307 13.6469 4.3437 13.6188 4.34682C13.5969 4.34995 12.3219 4.90932 10.7906 5.59057Z" fill="#00ECFF"/>
<path d="M11.0938 8.38745C8.98439 8.8312 7.99376 11.2062 9.17189 12.9843C9.95626 14.1687 11.4719 14.6437 12.7875 14.1125C13.5 13.825 14.1094 13.2312 14.4094 12.5312C14.6063 12.0687 14.6406 11.8937 14.6375 11.3125C14.6375 10.8406 14.6281 10.7718 14.55 10.5156C14.2281 9.45933 13.4563 8.7062 12.4063 8.42183C12.1344 8.34995 11.375 8.3312 11.0938 8.38745ZM13.2125 10.4218C13.3313 10.5218 13.3625 10.6468 13.3031 10.7843C13.275 10.8468 12.8813 11.2625 12.3688 11.7718C11.5219 12.6156 11.475 12.6562 11.3656 12.6562C11.3 12.6562 11.2094 12.6375 11.1625 12.6125C11.0156 12.5375 10.1875 11.6718 10.1813 11.5906C10.1625 11.3031 10.3031 11.1625 10.5875 11.1812C10.6344 11.1843 10.7844 11.3093 11.0031 11.5218L11.3469 11.8562L12.1031 11.1C12.85 10.3562 12.8656 10.3437 12.9906 10.3437C13.0844 10.3437 13.1469 10.3656 13.2125 10.4218Z" fill="#00ECFF"/>
<path d="M8.00325 12.7311C8.00013 13.5905 8.0095 13.8155 8.04075 13.803C8.32825 13.6874 8.68763 13.5155 8.68763 13.4936C8.68763 13.478 8.647 13.4061 8.597 13.3342C8.35325 12.9749 8.122 12.3749 8.05013 11.9124C8.0095 11.653 8.00638 11.6936 8.00325 12.7311Z" fill="#00ECFF"/>
</svg>
