<svg width="16" height="16" viewBox="0 0 16 16" fill="none" xmlns="http://www.w3.org/2000/svg">
<g clip-path="url(#clip0_118_63)">
<path d="M15.9433 6.76736L15.9406 6.70103L15.9307 6.6347C15.9072 6.47966 15.8667 6.32622 15.8081 6.17838C15.6792 5.84673 15.4611 5.53745 15.1789 5.28811C14.6796 4.84538 14.0153 4.60084 13.3086 4.60084C13.1635 4.60084 13.0202 4.61122 12.8814 4.6312C12.3865 4.21164 11.7393 3.98069 11.0534 3.98069C10.8795 3.98069 10.7091 3.99587 10.5441 4.02464C10.1593 3.72416 9.69056 3.53156 9.1876 3.46603V2.3448C9.1876 1.71826 8.91269 1.13008 8.41244 0.686546C7.91308 0.243811 7.24878 -0.000732422 6.54212 -0.000732422C5.08372 -0.000732422 3.89663 1.05096 3.89663 2.3448V5.30729C3.51806 5.12748 3.08812 5.02839 2.64375 5.02839C2.10924 5.02839 1.59366 5.16984 1.152 5.43756C0.568821 5.79079 0.175829 6.32463 0.0451324 6.94078C-0.0855645 7.55613 0.0622582 8.18028 0.46156 8.69733L3.10434 12.0546C3.90024 13.2877 6.05809 15.9985 9.63197 15.9985C11.7402 15.9985 13.7908 15.0387 14.9932 13.4931C15.516 12.8218 15.827 12.0242 15.9442 11.0565C16.0623 10.0831 15.955 7.10221 15.9424 6.76576L15.9433 6.76736ZM14.4362 10.9142C14.3578 11.5655 14.1667 12.1897 13.7449 12.7307C12.8318 13.9031 11.2526 14.6543 9.64369 14.6543H9.63287C6.98739 14.6543 5.2027 12.6164 4.39058 11.337L1.71535 7.93893C1.36382 7.48341 1.49542 6.86086 2.01009 6.54919C2.20479 6.43091 2.42652 6.37497 2.64555 6.37497C3.00519 6.37497 3.35942 6.52761 3.57755 6.81052L4.84036 8.41443C5.01792 8.63979 5.41632 8.52791 5.41632 8.2538V2.37597C5.41632 1.84613 5.867 1.38421 6.4628 1.34745C6.80622 1.32587 7.11899 1.44095 7.34072 1.63755C7.54443 1.81816 7.67152 2.0683 7.67152 2.3448V5.78599C7.67152 5.76921 7.67332 5.75243 7.67422 5.73564V6.9224C7.67422 7.09582 7.82115 7.25165 8.01584 7.26044C8.22405 7.27003 8.39621 7.12299 8.39621 6.94078V5.15306C8.39621 4.95566 8.57198 4.78704 8.79461 4.78624C8.79641 4.78624 8.79732 4.78624 8.79912 4.78624C9.11009 4.78624 9.39221 4.89812 9.59682 5.07953C9.80053 5.26014 9.92762 5.51028 9.92762 5.78679V6.32702C9.92762 6.31903 9.92852 6.31184 9.92852 6.30465V6.924C9.92852 7.09741 10.0754 7.25325 10.2701 7.26204C10.4783 7.27163 10.6505 7.12459 10.6505 6.94238V5.69489C10.6505 5.49749 10.8263 5.32887 11.048 5.32807C11.0498 5.32807 11.0516 5.32807 11.0543 5.32807C11.3653 5.32807 11.6474 5.43995 11.852 5.62136C12.0242 5.774 12.1405 5.97699 12.1729 6.20235V6.9248C12.1729 7.09821 12.3198 7.25405 12.5145 7.26284C12.7227 7.27243 12.8949 7.12538 12.8949 6.94318V6.31583C12.8949 6.11844 13.0698 5.95142 13.2924 5.94902C13.2978 5.94902 13.3041 5.94902 13.3104 5.94902C13.6214 5.94902 13.9035 6.0609 14.1081 6.24231C14.228 6.3486 14.3208 6.47806 14.3767 6.62271C14.4011 6.68425 14.4182 6.74818 14.4281 6.81451C14.4281 6.81451 14.548 10.0088 14.438 10.9166L14.4362 10.9142Z" fill="#00ECFF"/>
</g>
<defs>
<clipPath id="clip0_118_63">
<rect width="16" height="16" fill="white"/>
</clipPath>
</defs>
</svg>
