<svg width="16" height="16" viewBox="0 0 16 16" fill="none" xmlns="http://www.w3.org/2000/svg">
<g clip-path="url(#clip0_183_173)">
<path d="M7.4221 0.862547C5.99397 1.01255 4.78772 1.4688 3.7221 2.26567C3.18147 2.6688 2.66897 3.17505 2.28772 3.6813C2.09397 3.94067 2.0471 4.12817 2.1346 4.30005C2.22522 4.47505 2.32835 4.54067 2.52522 4.5563C2.75335 4.5688 2.81897 4.52505 3.15022 4.1063C4.60022 2.28755 6.97835 1.44067 9.2971 1.92192C11.5721 2.3938 13.4471 4.18755 14.0283 6.44692C14.0783 6.63755 14.1408 6.95005 14.1658 7.14067C14.2158 7.49692 14.2658 8.31255 14.2377 8.31255C14.2283 8.31255 14.1752 8.28442 14.119 8.25005C13.7408 8.0188 13.2783 8.41567 13.4502 8.82192C13.4877 8.91567 14.219 9.77192 14.394 9.92817C14.4346 9.96567 14.5252 10.0157 14.594 10.0344C14.6971 10.0657 14.7408 10.0625 14.8533 10.0188C14.9658 9.97817 15.0752 9.87192 15.4533 9.4438C16.0221 8.80005 16.0752 8.69067 15.9408 8.43755C15.8158 8.20005 15.5127 8.11255 15.2908 8.25005L15.1877 8.31255V8.24067C15.1815 7.88755 15.119 7.10005 15.0783 6.85317C14.5565 3.77505 12.1471 1.39692 9.06272 0.921922C8.7471 0.875047 7.6846 0.834422 7.4221 0.862547Z" fill="#00ECFF"/>
<path d="M6.80957 3.35312C6.6252 3.475 6.59395 3.58125 6.59395 4.08437V4.53125L6.3377 4.65938C6.19395 4.73125 5.99082 4.85 5.8877 4.92188L5.69707 5.05312L5.31582 4.8375C4.90332 4.6 4.7627 4.5625 4.5877 4.63437C4.4377 4.69687 4.39395 4.7625 3.84707 5.71562C3.42207 6.45937 3.3752 6.55625 3.3752 6.6875C3.3752 6.91563 3.45957 7.0125 3.89082 7.2625L4.26582 7.47813L4.2627 8.0125L4.25957 8.54688L3.91895 8.74375C3.45957 9.00937 3.39707 9.07187 3.38145 9.30312L3.37207 9.48438L3.89707 10.3906C4.40957 11.275 4.4252 11.3 4.57207 11.3719C4.77207 11.4688 4.84395 11.4531 5.30645 11.1906L5.69082 10.9719L5.93457 11.1344C6.06582 11.225 6.26895 11.3406 6.38145 11.3906L6.5877 11.4844L6.6002 11.9688C6.60957 12.4094 6.61582 12.4625 6.67832 12.55C6.81895 12.7437 6.85332 12.75 8.0002 12.75C9.14707 12.75 9.18145 12.7437 9.32207 12.55C9.38457 12.4625 9.39082 12.4094 9.4002 11.9688L9.4127 11.4844L9.61582 11.3937C9.72832 11.3406 9.93145 11.2281 10.0689 11.1375L10.3189 10.9719L10.6939 11.1875C11.1533 11.45 11.2283 11.4688 11.4283 11.3719C11.5752 11.3 11.5908 11.275 12.1033 10.3906L12.6283 9.48438L12.6189 9.30625C12.6033 9.075 12.5533 9.02187 12.0971 8.75312L11.7408 8.54063L11.7377 8.00938L11.7346 7.47813L12.1096 7.2625C12.5408 7.01562 12.6252 6.91875 12.6252 6.6875C12.6252 6.55625 12.5783 6.45937 12.1533 5.71562C11.6064 4.7625 11.5627 4.69687 11.4127 4.63437C11.2346 4.55937 11.0971 4.6 10.6846 4.8375L10.3064 5.05625L10.1158 4.92188C10.0096 4.85 9.80645 4.73125 9.66582 4.65938L9.40645 4.53125V4.08437C9.40645 3.58125 9.3752 3.475 9.19082 3.35312C9.08457 3.28125 9.0752 3.28125 8.0002 3.28125C6.9252 3.28125 6.91582 3.28125 6.80957 3.35312ZM8.42207 6.67812C9.1252 6.89687 9.54395 7.64687 9.35957 8.35938C9.2502 8.76875 8.98457 9.09063 8.59395 9.27813C8.36582 9.3875 8.3502 9.39062 8.0002 9.39062C7.6502 9.39062 7.63457 9.3875 7.40645 9.27813C6.79082 8.98125 6.4752 8.31875 6.64082 7.67188C6.84707 6.88438 7.64707 6.4375 8.42207 6.67812Z" fill="#00ECFF"/>
<path d="M1.11886 6.01877C1.03761 6.05314 0.868859 6.21877 0.543859 6.58752C-0.0217659 7.23127 -0.0748909 7.34064 0.0594841 7.59377C0.181359 7.82814 0.487609 7.91877 0.709484 7.78439L0.806359 7.72189L0.825109 8.05627C0.887609 9.23127 1.01886 9.88752 1.36573 10.7344C1.72511 11.6219 2.25323 12.4063 2.97511 13.1156C3.55323 13.6875 4.10948 14.0875 4.82823 14.4406C5.53761 14.7875 6.18136 14.9906 6.98448 15.1156C7.46886 15.1906 8.53761 15.1906 9.03136 15.1125C10.3251 14.9125 11.5251 14.3844 12.5157 13.5844C12.8345 13.325 13.4626 12.6813 13.7001 12.3656C13.8532 12.1656 13.8876 12.0969 13.9001 11.975C13.9157 11.8063 13.8689 11.6875 13.7376 11.5656C13.6407 11.475 13.3907 11.4406 13.2532 11.5C13.197 11.5219 13.047 11.6781 12.8814 11.8844C11.8907 13.125 10.5595 13.9031 8.95323 14.1781C8.51886 14.25 7.48136 14.25 7.04698 14.1781C5.33136 13.8844 3.90323 12.9938 2.89698 11.5906C2.78136 11.4281 2.57823 11.0781 2.44386 10.8125C2.02511 9.98127 1.83448 9.25314 1.77823 8.28752C1.76261 7.98752 1.75323 7.73752 1.75948 7.72814C1.76886 7.72189 1.82198 7.74377 1.87823 7.77814C2.25948 8.00939 2.72511 7.61564 2.55011 7.20939C2.52823 7.15314 2.30011 6.87502 2.04698 6.58752C1.49386 5.96252 1.39698 5.90314 1.11886 6.01877Z" fill="#00ECFF"/>
</g>
<defs>
<clipPath id="clip0_183_173">
<rect width="16" height="16" fill="white"/>
</clipPath>
</defs>
</svg>
