<svg width="16" height="16" viewBox="0 0 16 16" fill="none" xmlns="http://www.w3.org/2000/svg">
<g clip-path="url(#clip0_183_111)">
<path d="M7.30633 0.031167C6.87508 0.0717926 6.77195 0.184293 6.72195 0.671792C6.68133 1.05929 6.60633 1.28742 6.42195 1.56242C6.09383 2.05617 5.59695 2.31867 5.00945 2.31554C4.5157 2.31242 4.1407 2.17492 3.7657 1.85929C3.4907 1.62492 3.31883 1.56867 3.14695 1.66242C2.97195 1.75304 2.55633 2.12804 2.12508 2.58117C1.57508 3.15929 1.54383 3.31554 1.91258 3.71554C2.22508 4.04992 2.37508 4.44367 2.37508 4.91242C2.37508 5.86867 1.71258 6.54992 0.665704 6.66242C0.296954 6.70304 0.175079 6.75929 0.106329 6.92179C-0.0374213 7.26554 -0.0311713 8.82804 0.115704 9.04992C0.190704 9.16554 0.450079 9.28117 0.631329 9.28117C1.10008 9.28117 1.60945 9.53117 1.93133 9.91554C2.2282 10.2718 2.36258 10.6812 2.33445 11.1405C2.30633 11.5937 2.18445 11.878 1.85633 12.2655C1.5532 12.6218 1.55945 12.7562 1.8907 13.153C2.13445 13.4437 2.63758 13.9468 2.8907 14.1562C3.18445 14.3968 3.38133 14.3874 3.67195 14.1249C4.00008 13.828 4.38758 13.6624 4.81258 13.6343C5.33133 13.603 5.75633 13.7562 6.12508 14.1124C6.46883 14.4437 6.63758 14.8218 6.67508 15.353C6.70008 15.6843 6.73758 15.7812 6.88133 15.8687C7.14695 16.0343 8.76258 16.0437 9.03758 15.8843C9.1907 15.7937 9.24383 15.6749 9.2782 15.328C9.31883 14.9405 9.39383 14.7124 9.5782 14.4374C9.90633 13.9437 10.4032 13.6812 10.9907 13.6843C11.4845 13.6874 11.8595 13.8249 12.2345 14.1405C12.5095 14.3749 12.6813 14.4312 12.8532 14.3374C13.1157 14.1999 14.1532 13.1843 14.2751 12.9468C14.3845 12.7343 14.3313 12.5499 14.0876 12.2843C13.772 11.9437 13.6251 11.5593 13.6251 11.0687C13.6251 10.5687 13.8032 10.1624 14.172 9.81554C14.5063 9.50304 14.8501 9.36242 15.3532 9.32492C15.8251 9.29054 15.9157 9.19992 15.9657 8.69054C16.0313 8.05929 15.9876 7.10617 15.8876 6.95617C15.8063 6.82804 15.6345 6.74679 15.3782 6.71867C14.8032 6.65304 14.5313 6.53117 14.1845 6.18742C13.7938 5.80304 13.6345 5.38742 13.6657 4.85929C13.6938 4.41242 13.8188 4.11867 14.1438 3.73429C14.447 3.37804 14.4407 3.24367 14.1095 2.84679C13.8657 2.55617 13.3626 2.05304 13.1095 1.84367C12.8188 1.60617 12.6126 1.61242 12.3438 1.86242C12.1563 2.03742 11.8876 2.19992 11.6282 2.28742C11.3532 2.38429 10.7907 2.39054 10.5345 2.29992C9.99383 2.11242 9.55945 1.65617 9.39383 1.09992C9.36883 1.00617 9.33758 0.803042 9.32508 0.646792C9.30008 0.315542 9.26258 0.218667 9.11258 0.128042C8.93133 0.015542 7.99695 -0.0344582 7.30633 0.031167ZM8.6407 3.44054C10.397 3.66554 11.922 4.98429 12.422 6.70617C12.6251 7.40617 12.6595 8.21554 12.5157 8.92804C12.4251 9.36554 12.1876 9.99992 12.0063 10.2749C11.9595 10.3468 11.9501 10.3405 10.9501 9.34054L9.94383 8.33429L10.0032 8.16554C10.3438 7.17804 10.1126 6.08429 9.40945 5.33742C8.70945 4.59054 7.79383 4.29054 6.79695 4.47492C6.4657 4.53742 6.37508 4.61242 6.37508 4.83117C6.37508 4.94367 6.41258 4.98742 7.09383 5.67179C7.9157 6.49679 7.85008 6.37179 7.7657 6.95929C7.70633 7.39054 7.65945 7.55617 7.59695 7.57492C7.48758 7.60929 6.98758 7.68742 6.75008 7.70617L6.50008 7.72804L5.78758 7.02179C5.39695 6.63429 5.03758 6.29992 4.9907 6.28429C4.80633 6.21554 4.63445 6.35929 4.58133 6.62492C4.38133 7.61867 4.67508 8.58742 5.38133 9.26867C5.88133 9.75617 6.4782 10.0155 7.17195 10.053C7.56258 10.0718 7.8532 10.0374 8.20945 9.92179L8.4532 9.84367L9.46258 10.853C10.0157 11.4062 10.4657 11.8718 10.4595 11.8905C10.4407 11.9437 9.77195 12.2655 9.46883 12.3655C7.6782 12.9562 5.7407 12.4249 4.52195 11.0155C2.85633 9.08742 3.06258 6.18429 4.98445 4.52179C6.0032 3.64054 7.26883 3.26554 8.6407 3.44054Z" fill="#00ECFF"/>
</g>
<defs>
<clipPath id="clip0_183_111">
<rect width="16" height="16" fill="white"/>
</clipPath>
</defs>
</svg>
