<svg width="16" height="17" viewBox="0 0 16 17" fill="none" xmlns="http://www.w3.org/2000/svg">
<g clip-path="url(#clip0_112_860)">
<path d="M2.81212 16.4438C2.59292 16.4438 2.37452 16.3845 2.17532 16.2651C1.78092 16.0288 1.54492 15.6072 1.54492 15.1371V10.5632H3.00172V14.8028L7.21132 12.3359L7.93212 13.6385L3.44012 16.2709C3.24332 16.3861 3.02812 16.4438 2.81292 16.4438H2.81212Z" fill="#00ECFF"/>
<path d="M12.5736 10.9189L11.8528 9.61628L14.3472 8.15477L10.5696 5.99256L11.2776 4.68256L15.3488 7.01274C15.748 7.24164 15.9976 7.67556 16 8.14654C16.0024 8.61669 15.7568 9.05391 15.36 9.28692L12.5736 10.9197V10.9189Z" fill="#00ECFF"/>
<path d="M3.00172 5.35772H1.54492V1.33055C1.54492 0.863688 1.77852 0.442938 2.16972 0.205803C2.56092 -0.0313316 3.03132 -0.0370953 3.42812 0.190159L3.44172 0.198393L6.61052 2.10782L5.87452 3.40136L3.00012 1.66978V5.35772H3.00172Z" fill="#00ECFF"/>
<path d="M2.2736 9.37586C1.02 9.37586 0 8.32604 0 7.0358C0 5.74556 1.02 4.69574 2.2736 4.69574C3.5272 4.69574 4.5472 5.74556 4.5472 7.0358C4.5472 8.32604 3.5272 9.37586 2.2736 9.37586ZM2.2736 6.19512C1.8232 6.19512 1.4568 6.57223 1.4568 7.0358C1.4568 7.49936 1.8232 7.87648 2.2736 7.87648C2.724 7.87648 3.0904 7.49936 3.0904 7.0358C3.0904 6.57223 2.724 6.19512 2.2736 6.19512Z" fill="#00ECFF"/>
<path d="M9.11589 14.1976C7.86229 14.1976 6.84229 13.1478 6.84229 11.8576C6.84229 10.5673 7.86229 9.51752 9.11589 9.51752C10.3695 9.51752 11.3895 10.5673 11.3895 11.8576C11.3895 13.1478 10.3695 14.1976 9.11589 14.1976ZM9.11589 11.0169C8.66548 11.0169 8.29909 11.394 8.29909 11.8576C8.29909 12.3211 8.66548 12.6983 9.11589 12.6983C9.56628 12.6983 9.93269 12.3211 9.93269 11.8576C9.93269 11.394 9.56628 11.0169 9.11589 11.0169Z" fill="#00ECFF"/>
<path d="M9.37834 6.74189C8.12474 6.74189 7.10474 5.69207 7.10474 4.40183C7.10474 3.11158 8.12474 2.06177 9.37834 2.06177C10.6319 2.06177 11.6519 3.11158 11.6519 4.40183C11.6519 5.69207 10.6319 6.74189 9.37834 6.74189ZM9.37834 3.56115C8.92794 3.56115 8.56154 3.93826 8.56154 4.40183C8.56154 4.86539 8.92794 5.2425 9.37834 5.2425C9.82874 5.2425 10.1951 4.86539 10.1951 4.40183C10.1951 3.93826 9.82874 3.56115 9.37834 3.56115Z" fill="#00ECFF"/>
</g>
<defs>
<clipPath id="clip0_112_860">
<rect width="16" height="16.4677" fill="white"/>
</clipPath>
</defs>
</svg>
