<svg width="16" height="16" viewBox="0 0 16 16" fill="none" xmlns="http://www.w3.org/2000/svg">
<g clip-path="url(#clip0_112_805)">
<path d="M6.40549 9.4278C6.44046 9.07429 6.18224 8.75937 5.82873 8.7244C5.47523 8.68942 5.16031 8.94764 5.12534 9.30115C5.09036 9.65465 5.34858 9.96957 5.70209 10.0045C6.05559 10.0395 6.37051 9.7813 6.40549 9.4278Z" fill="#00ECFF"/>
<path d="M10.2829 10.0066C10.6373 9.9814 10.9041 9.67371 10.8789 9.31938C10.8536 8.96505 10.546 8.69824 10.1916 8.72345C9.83729 8.74867 9.57049 9.05635 9.5957 9.41068C9.62091 9.76502 9.9286 10.0318 10.2829 10.0066Z" fill="#00ECFF"/>
<path d="M10.1456 6.1496H5.85443C4.32563 6.1496 3.08643 7.3888 3.08643 8.9176V10.6088C3.08643 12.1376 4.32563 13.3768 5.85443 13.3768H10.1456C11.6744 13.3768 12.9136 12.1376 12.9136 10.6088V8.9176C12.9136 7.3888 11.6744 6.1496 10.1456 6.1496ZM12.3504 10.6088C12.3504 11.824 11.3616 12.8136 10.1456 12.8136H5.85443C4.63923 12.8136 3.64963 11.8248 3.64963 10.6088V8.9176C3.64963 7.7024 4.63843 6.7128 5.85443 6.7128H10.1456C11.3608 6.7128 12.3504 7.7016 12.3504 8.9176V10.6088Z" fill="#00ECFF"/>
<path d="M14.4848 8.19038C14.4544 8.18318 14.4248 8.18158 14.3952 8.18398C14.1336 5.90638 12.2 4.13838 9.8528 4.13838H8.272V3.38238C8.8672 3.25278 9.3152 2.72158 9.3152 2.08798C9.3152 1.35758 8.7208 0.763184 7.9904 0.763184C7.26 0.763184 6.6656 1.35758 6.6656 2.08798C6.6656 2.72158 7.1128 3.25278 7.7088 3.38238V4.13838H6.1472C3.8 4.13838 1.8664 5.90718 1.6048 8.18398C1.5752 8.18158 1.5456 8.18398 1.5152 8.19038C0.6232 8.40478 0 9.19678 0 10.1152V10.9744C0 12.0664 0.8888 12.9552 1.9808 12.9552H2.1888C2.98 14.32 4.456 15.2376 6.1472 15.2376H9.8536C11.5576 15.2376 13.044 14.3048 13.8304 12.9224C13.8696 12.9432 13.9144 12.9552 13.9624 12.9552H14.02C15.112 12.9552 16.0008 12.0664 16.0008 10.9744V10.1152C16.0008 9.19598 15.3776 8.40478 14.4856 8.18958L14.4848 8.19038ZM7.1592 2.08718C7.1592 1.62878 7.532 1.25598 7.9912 1.25598C8.4504 1.25598 8.8232 1.62878 8.8232 2.08718C8.8232 2.54558 8.4504 2.91918 7.9912 2.91918C7.532 2.91918 7.1592 2.54638 7.1592 2.08718ZM0.564 10.9744V10.1152C0.564 9.48318 0.976 8.93518 1.5744 8.75758V10.664C1.5744 11.2744 1.6944 11.8568 1.9112 12.3888C1.1616 12.3528 0.564 11.7312 0.564 10.9736V10.9744ZM12.688 13.5C11.9304 14.2576 10.924 14.6744 9.8536 14.6744H6.1472C5.076 14.6744 4.0696 14.2576 3.3128 13.5C2.556 12.7424 2.1384 11.736 2.1384 10.6656V8.71118C2.1384 7.63998 2.5552 6.63358 3.3128 5.87678C4.0704 5.11998 5.0768 4.70238 6.1472 4.70238H9.8536C10.9248 4.70238 11.9312 5.11918 12.688 5.87678C13.4448 6.63358 13.8624 7.64078 13.8624 8.71118V10.6656C13.8624 11.7368 13.4456 12.7432 12.688 13.5ZM15.436 10.9744C15.436 11.7328 14.8376 12.3536 14.0888 12.3896C14.3056 11.8576 14.4256 11.2752 14.4256 10.6648V8.75838C15.024 8.93598 15.436 9.48398 15.436 10.116V10.9752V10.9744Z" fill="#00ECFF"/>
<path d="M9.20723 11.144H6.79283C6.63683 11.144 6.51123 11.2704 6.51123 11.4256C6.51123 11.5808 6.63763 11.7072 6.79283 11.7072H9.20723C9.36323 11.7072 9.48883 11.5808 9.48883 11.4256C9.48883 11.2704 9.36243 11.144 9.20723 11.144Z" fill="#00ECFF"/>
</g>
<defs>
<clipPath id="clip0_112_805">
<rect width="16" height="16" fill="white"/>
</clipPath>
</defs>
</svg>
