<svg width="18" height="32" viewBox="0 0 18 32" fill="none" xmlns="http://www.w3.org/2000/svg">
<path id="Vector" fill-rule="evenodd" clip-rule="evenodd" d="M15.0002 31.3337H3.00016C1.5275 31.3337 0.333496 30.1397 0.333496 28.667V3.33366C0.333496 1.86099 1.5275 0.666992 3.00016 0.666992H15.0002C16.4728 0.666992 17.6668 1.86099 17.6668 3.33366V28.667C17.6668 30.1397 16.4728 31.3337 15.0002 31.3337ZM16.3335 3.33366C16.3335 2.59766 15.7362 2.00033 15.0002 2.00033H3.00016C2.26416 2.00033 1.66683 2.59766 1.66683 3.33366V6.00033H16.3335V3.33366ZM16.3335 7.33366H1.66683V24.667H16.3335V7.33366ZM16.3335 26.0003H1.66683V28.667C1.66683 29.403 2.26416 30.0003 3.00016 30.0003H15.0002C15.7362 30.0003 16.3335 29.403 16.3335 28.667V26.0003ZM9.00016 29.3337C8.26416 29.3337 7.66683 28.7363 7.66683 28.0003C7.66683 27.2643 8.26416 26.667 9.00016 26.667C9.73616 26.667 10.3335 27.2643 10.3335 28.0003C10.3335 28.7363 9.73616 29.3337 9.00016 29.3337ZM4.3335 9.33366H5.66683C6.0355 9.33366 6.3335 9.63233 6.3335 10.0003V11.3337C6.3335 11.7017 6.0355 12.0003 5.66683 12.0003H4.3335C3.96483 12.0003 3.66683 11.7017 3.66683 11.3337V10.0003C3.66683 9.63233 3.96483 9.33366 4.3335 9.33366ZM4.3335 14.0003H5.66683C6.0355 14.0003 6.3335 14.299 6.3335 14.667V16.0003C6.3335 16.369 6.0355 16.667 5.66683 16.667H4.3335C3.96483 16.667 3.66683 16.369 3.66683 16.0003V14.667C3.66683 14.299 3.96483 14.0003 4.3335 14.0003ZM4.3335 18.667H5.66683C6.0355 18.667 6.3335 18.965 6.3335 19.3337V20.667C6.3335 21.0357 6.0355 21.3337 5.66683 21.3337H4.3335C3.96483 21.3337 3.66683 21.0357 3.66683 20.667V19.3337C3.66683 18.965 3.96483 18.667 4.3335 18.667ZM8.3335 9.33366H9.66683C10.0355 9.33366 10.3335 9.63233 10.3335 10.0003V11.3337C10.3335 11.7017 10.0355 12.0003 9.66683 12.0003H8.3335C7.96483 12.0003 7.66683 11.7017 7.66683 11.3337V10.0003C7.66683 9.63233 7.96483 9.33366 8.3335 9.33366ZM8.3335 14.0003H9.66683C10.0355 14.0003 10.3335 14.299 10.3335 14.667V16.0003C10.3335 16.369 10.0355 16.667 9.66683 16.667H8.3335C7.96483 16.667 7.66683 16.369 7.66683 16.0003V14.667C7.66683 14.299 7.96483 14.0003 8.3335 14.0003ZM8.3335 18.667H9.66683C10.0355 18.667 10.3335 18.965 10.3335 19.3337V20.667C10.3335 21.0357 10.0355 21.3337 9.66683 21.3337H8.3335C7.96483 21.3337 7.66683 21.0357 7.66683 20.667V19.3337C7.66683 18.965 7.96483 18.667 8.3335 18.667ZM12.3335 9.33366H13.6668C14.0355 9.33366 14.3335 9.63233 14.3335 10.0003V11.3337C14.3335 11.7017 14.0355 12.0003 13.6668 12.0003H12.3335C11.9648 12.0003 11.6668 11.7017 11.6668 11.3337V10.0003C11.6668 9.63233 11.9648 9.33366 12.3335 9.33366ZM12.3335 14.0003H13.6668C14.0355 14.0003 14.3335 14.299 14.3335 14.667V16.0003C14.3335 16.369 14.0355 16.667 13.6668 16.667H12.3335C11.9648 16.667 11.6668 16.369 11.6668 16.0003V14.667C11.6668 14.299 11.9648 14.0003 12.3335 14.0003ZM7.00016 3.33366H11.0002C11.3688 3.33366 11.6668 3.63233 11.6668 4.00033C11.6668 4.36833 11.3688 4.66699 11.0002 4.66699H7.00016C6.6315 4.66699 6.3335 4.36833 6.3335 4.00033C6.3335 3.63233 6.6315 3.33366 7.00016 3.33366Z" fill="white"/>
</svg>
