<svg width="32" height="32" viewBox="0 0 32 32" fill="none" xmlns="http://www.w3.org/2000/svg">
<path fill-rule="evenodd" clip-rule="evenodd" d="M6.29289 3.29289C6.48043 3.10536 6.73478 3 7 3H25C25.5523 3 26 3.44772 26 4V14C26 14.2652 25.8946 14.5196 25.7071 14.7071C25.5196 14.8946 25.2652 15 25 15H22V18H25C26.1046 18 27 18.8954 27 20V22.126C28.7252 22.5701 30 24.1362 30 26C30 28.2091 28.2091 30 26 30C23.7909 30 22 28.2091 22 26C22 24.1362 23.2748 22.5701 25 22.126V20H22C20.8954 20 20 19.1046 20 18V15H17V22.126C18.7252 22.5701 20 24.1362 20 26C20 28.2091 18.2091 30 16 30C13.7909 30 12 28.2091 12 26C12 24.1362 13.2748 22.5701 15 22.126V15H12V18C12 19.1046 11.1046 20 10 20H7V22.126C8.72523 22.5701 10 24.1362 10 26C10 28.2091 8.20914 30 6 30C3.79086 30 2 28.2091 2 26C2 24.1362 3.27477 22.5701 5 22.126L5 20C5 18.8954 5.89543 18 7 18H10V15H7C6.44772 15 6 14.5523 6 14L6 4C6 3.73478 6.10536 3.48043 6.29289 3.29289ZM6 24C4.89543 24 4 24.8954 4 26C4 27.1046 4.89543 28 6 28C7.10457 28 8 27.1046 8 26C8 24.8954 7.10457 24 6 24ZM24 26C24 24.8954 24.8954 24 26 24C27.1046 24 28 24.8954 28 26C28 27.1046 27.1046 28 26 28C24.8954 28 24 27.1046 24 26ZM16 24C14.8954 24 14 24.8954 14 26C14 27.1046 14.8954 28 16 28C17.1046 28 18 27.1046 18 26C18 24.8954 17.1046 24 16 24ZM8 5L8 13L24 13V5L8 5Z" fill="#001E27"/>
</svg>
