<svg width="32" height="32" viewBox="0 0 32 32" fill="none" xmlns="http://www.w3.org/2000/svg">
<path fill-rule="evenodd" clip-rule="evenodd" d="M3 5.44434H3.0068H3.01359H3.02037H3.02715H3.03392H3.04068H3.04743H3.05417H3.0609H3.06763H3.07434H3.08105H3.08775H3.09445H3.10113H3.10781H3.11448H3.12114H3.12779H3.13444H3.14108H3.14771H3.15433H3.16094H3.16755H3.17415H3.18074H3.18732H3.1939H3.20046H3.20703H3.21358H3.22012H3.22666H3.23319H3.23971H3.24623H3.25274H3.25924H3.26573H3.27222H3.27869H3.28516H3.29163H3.29809H3.30453H3.31098H3.31741H3.32384H3.33026H3.33667H3.34308H3.34948H3.35587H3.36226H3.36864H3.37501H3.38137H3.38773H3.39408H3.40043H3.40677H3.4131H3.41942H3.42574H3.43205H3.43835H3.44465H3.45094H3.45723H3.4635H3.46977H3.47604H3.4823H3.48855H3.4948H3.50103H3.50727H3.51349H3.51971H3.52593H3.53213H3.53834H3.54453H3.55072H3.5569H3.56308H3.56925H3.57541H3.58157H3.58773H3.59387H3.60001H3.60615H3.61228H3.6184H3.62451H3.63063H3.63673H3.64283H3.64892H3.65501H3.66109H3.66717H3.67324H3.67931H3.68537H3.69142H3.69747H3.70351H3.70955H3.71558H3.72161H3.72763H3.73365H3.73966H3.74566H3.75166H3.75766H3.76365H3.76963H3.77561H3.78158H3.78755H3.79352H3.79948H3.80543H3.81138H3.81732H3.82326H3.82919H3.83512H3.84104H3.84696H3.85288H3.85879H3.86469H3.87059H3.87649H3.88238H3.88826H3.89414H3.90002H3.90589H3.91176H3.91762H3.92348H3.92933H3.93518H3.94102H3.94686H3.9527H3.95853H3.96436H3.97018H3.976H3.98181H3.98762H3.99343H3.99923H4.00503H4.01082H4.01661H4.02239H4.02817H4.03395H4.03972H4.04549H4.05126H4.05702H4.06277H4.06853H4.07428H4.08002H4.08576H4.0915H4.09724H4.10297H4.10869H4.11442H4.12014H4.12585H4.13156H4.13727H4.14298H4.14868H4.15438H4.16007H4.16576H4.17145H4.17714H4.18282H4.1885H4.19417H4.19984H4.20551H4.21118H4.21684H4.2225H4.22815H4.2338H4.23945H4.2451H4.25074H4.25638H4.26202H4.26766H4.27329H4.27892H4.28454H4.29017H4.29579H4.3014H4.30702H4.31263H4.31824H4.32384H4.32945H4.33505H4.34065H4.34624H4.35184H4.35743H4.36302H4.3686H4.37419H4.37977H4.38535H4.39092H4.3965H4.40207H4.40764H4.41321H4.41877H4.42433H4.4299H4.43545H4.44101H4.44656H4.45212H4.45767H4.46322H4.46876H4.47431H4.47985H4.48539H4.49093H4.49646H4.502H4.50753H4.51306H4.51859H4.52412H4.52965H4.53517H4.54069H4.54622H4.55174H4.55725H4.56277H4.56828H4.5738H4.57931H4.58482H4.59033H4.59584H4.60134H4.60685H4.61235H4.61786H4.62336H4.62886H4.63436H4.63985H4.64535H4.65085H4.65634H4.66184H4.66733H4.67282H4.67831H4.6838H4.68929H4.69477H4.70026H4.70575H4.71123H4.71672H4.7222H4.72768H4.73317H4.73865H4.74413H4.74961H4.75509H4.76057H4.76604H4.77152H4.777H4.78248H4.78795H4.79343H4.7989H4.80438H4.80985H4.81533H4.8208H4.82628H4.83175H4.83722H4.8427H4.84817H4.85364H4.85912H4.86459H4.87006H4.87554H4.88101H4.88648H4.89195H4.89743H4.9029H4.90837H4.91385H4.91932H4.92479H4.93027H4.93574H4.94122H4.94669H4.95217H4.95764H4.96312H4.9686H4.97407H4.97955H4.98503H4.99051H4.99599H5.00146H5.00695H5.01243H5.01791H5.02339H5.02887H5.03436H5.03984H5.04533H5.05081H5.0563H5.06179H5.06728H5.07276H5.07826H5.08375H5.08924H5.09473H5.10023H5.10572H5.11122H5.11672H5.12222H5.12772H5.13322H5.13872H5.14423H5.14973H5.15524H5.16075H5.16626H5.17177H5.17728H5.18279H5.18831H5.19382H5.19934H5.20486H5.21038H5.21591H5.22143H5.22696H5.23249H5.23802H5.24355H5.24908H5.25462H5.26015H5.26569H5.27123H5.27678H5.28232H5.28787H5.29342H5.29897H5.30452H5.31007H5.31563H5.32119H5.32675H5.33231H5.33788H5.34345H5.34902H5.35459H5.36016H5.36574H5.37132H5.3769H5.38248H5.38807H5.39366H5.39925H5.40484H5.41044H5.41604H5.42164H5.42725H5.43285H5.43846H5.44407H5.44969H5.45531H5.46093H5.46655H5.47218H5.47781H5.48344H5.48907H5.49471H5.50035H5.506H5.51164H5.51729H5.52295H5.5286H5.53426H5.53992H5.54559H5.55126H5.55693H5.5626H5.56828H5.57397H5.57965H5.58534H5.59103H5.59673H5.60243H5.60813H5.61383H5.61954H5.62526H5.63097H5.63669H5.64242H5.64814H5.65387H5.65961H5.66535H5.67109H5.67684H5.68259H5.68834H5.6941H5.69986H5.70562H5.71139H5.71717H5.72294H5.72873H5.73451H5.7403H5.74609H5.75189H5.75769H5.7635H5.76931H5.77512H5.78094H5.78677H5.79259H5.79843H5.80426H5.8101H5.81595H5.8218H5.82765H5.83351H5.83937H5.84524H5.85111H5.85699H5.86287H5.86876H5.87465H5.88054H5.88644H5.89235H5.89826H5.90417H5.91009H5.91602H5.92195H5.92788H5.93382H5.93976H5.94571H5.95167H5.95763H5.96359H5.96956H5.97553H5.97566L7.08067 9.72417L9.23939 20.3965C9.42807 21.3293 10.248 22 11.1997 22H24.9306C25.8721 22 26.6861 21.3434 26.8853 20.4232L28.942 10.9231C29.2118 9.67693 28.2623 8.49989 26.9873 8.49989H8.83016L7.91216 4.94435C7.68413 4.06116 6.88739 3.44434 5.97553 3.44434H5.96956H5.96359H5.95763H5.95167H5.94571H5.93976H5.93382H5.92788H5.92195H5.91602H5.91009H5.90417H5.89826H5.89235H5.88644H5.88054H5.87465H5.86876H5.86287H5.85699H5.85111H5.84524H5.83937H5.83351H5.82765H5.8218H5.81595H5.8101H5.80426H5.79843H5.79259H5.78677H5.78094H5.77512H5.76931H5.7635H5.75769H5.75189H5.74609H5.7403H5.73451H5.72873H5.72294H5.71717H5.71139H5.70562H5.69986H5.6941H5.68834H5.68259H5.67684H5.67109H5.66535H5.65961H5.65387H5.64814H5.64242H5.63669H5.63097H5.62526H5.61954H5.61383H5.60813H5.60243H5.59673H5.59103H5.58534H5.57965H5.57397H5.56828H5.5626H5.55693H5.55126H5.54559H5.53992H5.53426H5.5286H5.52295H5.51729H5.51164H5.506H5.50035H5.49471H5.48907H5.48344H5.47781H5.47218H5.46655H5.46093H5.45531H5.44969H5.44407H5.43846H5.43285H5.42725H5.42164H5.41604H5.41044H5.40484H5.39925H5.39366H5.38807H5.38248H5.3769H5.37132H5.36574H5.36016H5.35459H5.34902H5.34345H5.33788H5.33231H5.32675H5.32119H5.31563H5.31007H5.30452H5.29897H5.29342H5.28787H5.28232H5.27678H5.27123H5.26569H5.26015H5.25462H5.24908H5.24355H5.23802H5.23249H5.22696H5.22143H5.21591H5.21038H5.20486H5.19934H5.19382H5.18831H5.18279H5.17728H5.17177H5.16626H5.16075H5.15524H5.14973H5.14423H5.13872H5.13322H5.12772H5.12222H5.11672H5.11122H5.10572H5.10023H5.09473H5.08924H5.08375H5.07826H5.07276H5.06728H5.06179H5.0563H5.05081H5.04533H5.03984H5.03436H5.02887H5.02339H5.01791H5.01243H5.00695H5.00146H4.99599H4.99051H4.98503H4.97955H4.97407H4.9686H4.96312H4.95764H4.95217H4.94669H4.94122H4.93574H4.93027H4.92479H4.91932H4.91385H4.90837H4.9029H4.89743H4.89195H4.88648H4.88101H4.87554H4.87006H4.86459H4.85912H4.85364H4.84817H4.8427H4.83722H4.83175H4.82628H4.8208H4.81533H4.80985H4.80438H4.7989H4.79343H4.78795H4.78248H4.777H4.77152H4.76604H4.76057H4.75509H4.74961H4.74413H4.73865H4.73317H4.72768H4.7222H4.71672H4.71123H4.70575H4.70026H4.69477H4.68929H4.6838H4.67831H4.67282H4.66733H4.66184H4.65634H4.65085H4.64535H4.63985H4.63436H4.62886H4.62336H4.61786H4.61235H4.60685H4.60134H4.59584H4.59033H4.58482H4.57931H4.5738H4.56828H4.56277H4.55725H4.55174H4.54622H4.54069H4.53517H4.52965H4.52412H4.51859H4.51306H4.50753H4.502H4.49646H4.49093H4.48539H4.47985H4.47431H4.46876H4.46322H4.45767H4.45212H4.44656H4.44101H4.43545H4.4299H4.42433H4.41877H4.41321H4.40764H4.40207H4.3965H4.39092H4.38535H4.37977H4.37419H4.3686H4.36302H4.35743H4.35184H4.34624H4.34065H4.33505H4.32945H4.32384H4.31824H4.31263H4.30702H4.3014H4.29579H4.29017H4.28454H4.27892H4.27329H4.26766H4.26202H4.25638H4.25074H4.2451H4.23945H4.2338H4.22815H4.2225H4.21684H4.21118H4.20551H4.19984H4.19417H4.1885H4.18282H4.17714H4.17145H4.16576H4.16007H4.15438H4.14868H4.14298H4.13727H4.13156H4.12585H4.12014H4.11442H4.10869H4.10297H4.09724H4.0915H4.08576H4.08002H4.07428H4.06853H4.06277H4.05702H4.05126H4.04549H4.03972H4.03395H4.02817H4.02239H4.01661H4.01082H4.00503H3.99923H3.99343H3.98762H3.98181H3.976H3.97018H3.96436H3.95853H3.9527H3.94686H3.94102H3.93518H3.92933H3.92348H3.91762H3.91176H3.90589H3.90002H3.89414H3.88826H3.88238H3.87649H3.87059H3.86469H3.85879H3.85288H3.84696H3.84104H3.83512H3.82919H3.82326H3.81732H3.81138H3.80543H3.79948H3.79352H3.78755H3.78158H3.77561H3.76963H3.76365H3.75766H3.75166H3.74566H3.73966H3.73365H3.72763H3.72161H3.71558H3.70955H3.70351H3.69747H3.69142H3.68537H3.67931H3.67324H3.66717H3.66109H3.65501H3.64892H3.64283H3.63673H3.63063H3.62451H3.6184H3.61228H3.60615H3.60001H3.59387H3.58773H3.58157H3.57541H3.56925H3.56308H3.5569H3.55072H3.54453H3.53834H3.53213H3.52593H3.51971H3.51349H3.50727H3.50103H3.4948H3.48855H3.4823H3.47604H3.46977H3.4635H3.45723H3.45094H3.44465H3.43835H3.43205H3.42574H3.41942H3.4131H3.40677H3.40043H3.39408H3.38773H3.38137H3.37501H3.36864H3.36226H3.35587H3.34948H3.34308H3.33667H3.33026H3.32384H3.31741H3.31098H3.30453H3.29809H3.29163H3.28516H3.27869H3.27222H3.26573H3.25924H3.25274H3.24623H3.23971H3.23319H3.22666H3.22012H3.21358H3.20703H3.20046H3.1939H3.18732H3.18074H3.17415H3.16755H3.16094H3.15433H3.14771H3.14108H3.13444H3.12779H3.12114H3.11448H3.10781H3.10113H3.09445H3.08775H3.08105H3.07434H3.06763H3.0609H3.05417H3.04743H3.04068H3.03392H3.02715H3.02037H3.01359H3.0068H3V5.44434ZM11.1997 20L9.27808 10.4999H26.9873L24.9306 20H11.1997ZM9.56473 26.111C9.56473 27.7065 10.8359 28.9999 12.4041 28.9999C13.9722 28.9999 15.2434 27.7065 15.2434 26.111C15.2434 24.5155 13.9722 23.2221 12.4041 23.2221C10.8359 23.2221 9.56473 24.5155 9.56473 26.111ZM20.7237 26.111C20.7237 27.7065 21.9949 28.9999 23.5631 28.9999C25.1312 28.9999 26.4024 27.7065 26.4024 26.111C26.4024 24.5155 25.1312 23.2221 23.5631 23.2221C21.9949 23.2221 20.7237 24.5155 20.7237 26.111Z" fill="#001E27"/>
</svg>
