<svg width="32" height="32" viewBox="0 0 32 32" fill="none" xmlns="http://www.w3.org/2000/svg">
<path fill-rule="evenodd" clip-rule="evenodd" d="M26.179 6.04717C23.5536 3.41884 20.0624 1.97076 16.3427 1.96924C8.67835 1.96924 2.44041 8.20668 2.43741 15.8733C2.43634 18.3242 3.07665 20.7163 4.29353 22.825L2.3208 30.0305L9.69215 28.0969C11.7231 29.2047 14.0099 29.7886 16.3371 29.7894H16.3428C16.3423 29.7894 16.3432 29.7894 16.3428 29.7894C24.0063 29.7894 30.2447 23.5513 30.2479 15.8845C30.2493 12.169 28.8043 8.67539 26.179 6.04717ZM16.3427 27.441H16.338C14.2643 27.4402 12.2302 26.883 10.4557 25.83L10.0337 25.5796L5.65943 26.727L6.82704 22.4622L6.55221 22.0248C5.39533 20.1847 4.78432 18.0579 4.78522 15.8741C4.7877 9.50191 9.97245 4.31772 16.3474 4.31772C19.4343 4.31868 22.3362 5.52247 24.5183 7.70703C26.7003 9.8916 27.9013 12.7954 27.9001 15.8835C27.8975 22.2562 22.7129 27.441 16.3427 27.441Z" fill="black"/>
<path fill-rule="evenodd" clip-rule="evenodd" d="M22.6822 18.7852C22.3348 18.6113 20.6265 17.7709 20.3081 17.6549C19.9896 17.5389 19.758 17.481 19.5264 17.8288C19.2948 18.1765 18.6289 18.9592 18.4262 19.1911C18.2236 19.4229 18.0208 19.4521 17.6735 19.278C17.3261 19.1041 16.2066 18.7372 14.8795 17.5535C13.8466 16.6322 13.1493 15.4945 12.9466 15.1466C12.7439 14.7988 12.925 14.6108 13.099 14.4375C13.2552 14.2818 13.4464 14.0318 13.6202 13.8288C13.7938 13.626 13.8517 13.481 13.9676 13.2493C14.0834 13.0173 14.0255 12.8144 13.9386 12.6406C13.8517 12.4667 13.1569 10.7565 12.8674 10.0607C12.5853 9.38334 12.2989 9.47512 12.0856 9.46434C11.8833 9.45424 11.6513 9.45215 11.4197 9.45215C11.1881 9.45215 10.8117 9.53913 10.4933 9.88688C10.1748 10.2347 9.27716 11.0754 9.27716 12.7854C9.27716 14.4956 10.5222 16.1477 10.6959 16.3795C10.8696 16.6115 13.1459 20.1208 16.6312 21.6257C17.4601 21.9838 18.1073 22.1975 18.6119 22.3576C19.4442 22.6221 20.2016 22.5847 20.8003 22.4953C21.4678 22.3955 22.8559 21.6548 23.1454 20.8433C23.435 20.0316 23.435 19.3359 23.3481 19.1911C23.2612 19.0462 23.0296 18.9592 22.6822 18.7852Z" fill="black"/>
</svg>
