<svg width="36" height="49" viewBox="0 0 36 49" fill="none" xmlns="http://www.w3.org/2000/svg">
<path fill-rule="evenodd" clip-rule="evenodd" d="M32.2962 49.0001H16.6091C14.6839 49.0001 13.123 47.5787 13.123 45.8256V15.6681C13.123 13.915 14.6839 12.4937 16.6091 12.4937H32.2962C34.2214 12.4937 35.7822 13.915 35.7822 15.6681V45.8256C35.7822 47.5787 34.2214 49.0001 32.2962 49.0001ZM34.0392 15.6681C34.0392 14.792 33.2583 14.0809 32.2962 14.0809H16.6091C15.6469 14.0809 14.8661 14.792 14.8661 15.6681V18.8426H34.0392V15.6681ZM34.0392 20.4298H14.8661V41.0639H34.0392V20.4298ZM34.0392 42.6512H14.8661V45.8256C14.8661 46.7018 15.6469 47.4129 16.6091 47.4129H32.2962C33.2583 47.4129 34.0392 46.7018 34.0392 45.8256V42.6512ZM24.4526 46.6193C23.4905 46.6193 22.7096 45.9082 22.7096 45.032C22.7096 44.1559 23.4905 43.4448 24.4526 43.4448C25.4148 43.4448 26.1957 44.1559 26.1957 45.032C26.1957 45.9082 25.4148 46.6193 24.4526 46.6193ZM18.3521 22.8107H20.0951C20.577 22.8107 20.9666 23.1662 20.9666 23.6043V25.1916C20.9666 25.6296 20.577 25.9852 20.0951 25.9852H18.3521C17.8701 25.9852 17.4806 25.6296 17.4806 25.1916V23.6043C17.4806 23.1662 17.8701 22.8107 18.3521 22.8107ZM18.3521 28.366H20.0951C20.577 28.366 20.9666 28.7216 20.9666 29.1596V30.7469C20.9666 31.1858 20.577 31.5405 20.0951 31.5405H18.3521C17.8701 31.5405 17.4806 31.1858 17.4806 30.7469V29.1596C17.4806 28.7216 17.8701 28.366 18.3521 28.366ZM18.3521 33.9214H20.0951C20.577 33.9214 20.9666 34.2761 20.9666 34.715V36.3022C20.9666 36.7411 20.577 37.0958 20.0951 37.0958H18.3521C17.8701 37.0958 17.4806 36.7411 17.4806 36.3022V34.715C17.4806 34.2761 17.8701 33.9214 18.3521 33.9214ZM23.5811 22.8107H25.3241C25.8061 22.8107 26.1957 23.1662 26.1957 23.6043V25.1916C26.1957 25.6296 25.8061 25.9852 25.3241 25.9852H23.5811C23.0992 25.9852 22.7096 25.6296 22.7096 25.1916V23.6043C22.7096 23.1662 23.0992 22.8107 23.5811 22.8107ZM23.5811 28.366H25.3241C25.8061 28.366 26.1957 28.7216 26.1957 29.1596V30.7469C26.1957 31.1858 25.8061 31.5405 25.3241 31.5405H23.5811C23.0992 31.5405 22.7096 31.1858 22.7096 30.7469V29.1596C22.7096 28.7216 23.0992 28.366 23.5811 28.366ZM23.5811 33.9214H25.3241C25.8061 33.9214 26.1957 34.2761 26.1957 34.715V36.3022C26.1957 36.7411 25.8061 37.0958 25.3241 37.0958H23.5811C23.0992 37.0958 22.7096 36.7411 22.7096 36.3022V34.715C22.7096 34.2761 23.0992 33.9214 23.5811 33.9214ZM28.8102 22.8107H30.5532C31.0351 22.8107 31.4247 23.1662 31.4247 23.6043V25.1916C31.4247 25.6296 31.0351 25.9852 30.5532 25.9852H28.8102C28.3282 25.9852 27.9387 25.6296 27.9387 25.1916V23.6043C27.9387 23.1662 28.3282 22.8107 28.8102 22.8107ZM28.8102 28.366H30.5532C31.0351 28.366 31.4247 28.7216 31.4247 29.1596V30.7469C31.4247 31.1858 31.0351 31.5405 30.5532 31.5405H28.8102C28.3282 31.5405 27.9387 31.1858 27.9387 30.7469V29.1596C27.9387 28.7216 28.3282 28.366 28.8102 28.366ZM21.8381 15.6681H27.0672C27.5491 15.6681 27.9387 16.0237 27.9387 16.4617C27.9387 16.8998 27.5491 17.2554 27.0672 17.2554H21.8381C21.3562 17.2554 20.9666 16.8998 20.9666 16.4617C20.9666 16.0237 21.3562 15.6681 21.8381 15.6681Z" fill="white"/>
<path d="M2.48979 14.9517L4.0548 14.9226C4.11295 12.1935 5.20648 9.44665 7.32657 7.32657C9.44717 5.20597 12.1935 4.11295 14.9237 4.05376L14.9517 2.48979C11.8186 2.54587 8.66415 3.79777 6.23096 6.23096C3.79777 8.66415 2.54587 11.8186 2.48979 14.9517ZM5.55282 14.8639L7.08252 14.8359C7.12718 12.8887 7.90708 10.9312 9.41913 9.41913C10.9312 7.90709 12.8893 7.1277 14.8364 7.08304L14.8645 5.55334C12.5253 5.60475 10.1731 6.54043 8.35675 8.35675C6.54043 10.1731 5.60371 12.5253 5.55282 14.8639ZM8.61378 14.8084L10.144 14.7798C10.1726 13.6172 10.6409 12.4469 11.5439 11.5439C12.4469 10.6409 13.6167 10.1731 14.7803 10.1435L14.8084 8.61378C13.2522 8.65065 11.6898 9.27426 10.4815 10.4825C9.27322 11.6908 8.64961 13.2532 8.61378 14.8084Z" fill="white"/>
</svg>
