<svg width="32" height="32" viewBox="0 0 32 32" fill="none" xmlns="http://www.w3.org/2000/svg">
<path fill-rule="evenodd" clip-rule="evenodd" d="M15.5918 9.53547C15.5917 8.64413 15.8992 7.37582 16.5386 6.25687C16.9126 5.60254 17.3722 5.04539 17.9062 4.64159L17.9062 9.25471C17.9062 10.3593 18.8017 11.2547 19.9062 11.2547L23.6587 11.2547C24.7632 11.2547 25.6587 10.3593 25.6587 9.25472V4.64157C26.1927 5.04534 26.6522 5.60244 27.0261 6.25671C27.6654 7.37559 27.9728 8.64391 27.9727 9.53546V9.53553C27.9729 12.1543 26.6779 14.4716 24.4161 15.037C23.9709 15.1483 23.6586 15.5482 23.6586 16.0071L23.6584 26.0736C23.6584 27.1098 22.8184 27.9498 21.7822 27.9498C20.746 27.9498 19.906 27.1098 19.906 26.0736L19.9062 16.0071C19.9062 15.5483 19.5939 15.1483 19.1487 15.037C16.8869 14.4716 15.5918 12.1543 15.5918 9.53547ZM18.6637 2.09408C16.8703 2.54247 15.6017 3.86555 14.8022 5.26452C14.0034 6.66222 13.5917 8.27 13.5918 9.53551C13.5918 12.4332 14.9435 15.5881 17.9062 16.7373L17.906 26.0735C17.9059 28.2143 19.6414 29.9498 21.7822 29.9498C23.9229 29.9498 25.6583 28.2144 25.6584 26.0737L25.6586 16.7373C28.6213 15.5882 29.9729 12.4332 29.9727 9.53547C29.9728 8.26992 29.5612 6.66216 28.7626 5.26446C27.9632 3.86549 26.6947 2.54247 24.9012 2.09408C24.6025 2.0194 24.286 2.08651 24.0433 2.27602C23.8005 2.46552 23.6587 2.75629 23.6587 3.06423V9.25472L19.9062 9.25471L19.9062 3.06422C19.9062 2.75628 19.7644 2.46551 19.5216 2.27601C19.2789 2.0865 18.9624 2.01939 18.6637 2.09408ZM9.17747 7.22115L12.4485 6.34469C12.2213 7.08978 12.0787 7.83291 12.0248 8.52875L10.4493 8.95092L10.4812 10.8497C10.4872 11.2067 10.3025 11.5397 9.99654 11.7236C9.5073 12.0177 9.05853 12.364 8.6557 12.7532C8.39886 13.0013 8.0292 13.0937 7.68585 12.9955L5.85921 12.4729L4.93697 14.0703L6.30284 15.391C6.55957 15.6392 6.66444 16.0055 6.57797 16.352C6.44235 16.8954 6.36683 17.4572 6.35679 18.028C6.3505 18.3849 6.15442 18.7114 5.8423 18.8847L4.18178 19.8065L4.65916 21.5881L6.55821 21.5562C6.91513 21.5502 7.24819 21.7349 7.4321 22.0408C7.72614 22.53 8.0724 22.9787 8.46153 23.3815C8.70965 23.6383 8.80198 24.008 8.70376 24.3513L8.18128 26.1778L9.77864 27.1001L11.0991 25.7344C11.3474 25.4776 11.7137 25.3728 12.0602 25.4592C12.6037 25.5949 13.1655 25.6704 13.7363 25.6805C14.0933 25.6868 14.4198 25.8828 14.593 26.195L15.5149 27.8555L16.6878 27.5412C16.801 28.2205 17.0437 28.8566 17.39 29.4236L15.2783 29.9894C14.8351 30.1082 14.3679 29.9101 14.1452 29.5089L13.1141 27.6515C12.7894 27.6256 12.4678 27.583 12.1504 27.5243L10.6737 29.0516C10.3547 29.3815 9.8522 29.4519 9.45481 29.2225L6.5051 27.5195C6.10771 27.29 5.91746 26.8196 6.04367 26.3784L6.62797 24.3359C6.41862 24.0904 6.22099 23.8333 6.03623 23.5652L3.91213 23.601C3.45333 23.6087 3.04815 23.3032 2.92939 22.8599L2.04784 19.57C1.92908 19.1267 2.12721 18.6595 2.52841 18.4368L4.38571 17.4058C4.41168 17.0811 4.45429 16.7596 4.51288 16.4422L2.98545 14.9654C2.65557 14.6464 2.5851 14.1438 2.81454 13.7465L4.51755 10.7967C4.74699 10.3994 5.21744 10.2091 5.65861 10.3353L7.70131 10.9197C7.94683 10.7102 8.204 10.5126 8.47216 10.3278L8.43643 8.2039C8.42872 7.74509 8.73424 7.33992 9.17747 7.22115ZM9.9966 18.1644C9.9966 16.2111 11.4414 14.5953 13.3205 14.3272C14.0686 15.6558 15.1523 16.8115 16.616 17.5656L16.6159 20.903C15.9143 21.6058 14.9443 22.0406 13.8728 22.0406C11.732 22.0406 9.9966 20.3051 9.9966 18.1644ZM11.9966 18.1644C11.9966 17.1282 12.8366 16.2882 13.8728 16.2882C14.909 16.2882 15.749 17.1282 15.749 18.1644C15.749 19.2006 14.909 20.0406 13.8728 20.0406C12.8366 20.0406 11.9966 19.2006 11.9966 18.1644Z" fill="#001E27"/>
</svg>
