<svg width="15" height="15" viewBox="0 0 15 15" fill="none" xmlns="http://www.w3.org/2000/svg">
<path d="M4.40614 1.29199C4.26258 1.33301 4.03993 1.49414 3.93446 1.63477C3.73817 1.89258 3.74989 1.58496 3.74989 6.65625V11.25L5.70692 11.2471C7.55262 11.2441 7.65223 11.2412 7.49989 11.1973C7.2743 11.1328 7.03407 10.8926 6.94325 10.6436L6.8788 10.4619L6.78212 10.5352C6.72938 10.5762 6.63856 10.6143 6.5829 10.626C6.50087 10.6377 6.46571 10.626 6.38075 10.5527C6.32508 10.5029 6.25477 10.4092 6.22548 10.3447L6.17274 10.2246L5.97352 10.415C5.73915 10.6348 5.70692 10.6436 5.23524 10.6289C4.9452 10.6201 4.88368 10.6113 4.81337 10.5586C4.65223 10.4385 4.65223 10.1865 4.81337 10.0664C4.88368 10.0166 4.94813 10.002 5.19423 9.99609L5.49305 9.98438L5.7743 9.71191C5.92665 9.55957 6.09071 9.42188 6.14051 9.4043C6.31923 9.33398 6.49501 9.43652 6.58876 9.66504C6.61219 9.71484 6.63563 9.75586 6.64735 9.75586C6.65907 9.75586 6.73231 9.68848 6.81141 9.60645C6.89344 9.52441 7.01063 9.43066 7.07508 9.40137C7.18934 9.34863 7.1952 9.33984 7.40907 8.79785L7.62587 8.24707L9.43641 6.43066L11.2499 4.61426V3.33691C11.2499 2.5957 11.2616 1.99219 11.2792 1.90137C11.3056 1.77246 11.3641 1.62598 11.537 1.28027C11.5516 1.25098 4.51454 1.25977 4.40614 1.29199ZM9.84364 2.85645C9.95204 2.91211 9.99012 2.98242 9.99012 3.13477C9.99012 3.23145 9.97255 3.27539 9.90516 3.34277L9.8202 3.42773H7.49989H5.17958L5.09462 3.34277C4.95692 3.20508 4.98622 2.96484 5.15028 2.8623C5.22352 2.81836 5.43739 2.81543 7.49403 2.8125C9.45692 2.8125 9.7704 2.81836 9.84364 2.85645ZM9.84364 4.73145C9.95204 4.78711 9.99012 4.85742 9.99012 5.00977C9.99012 5.10645 9.97255 5.15039 9.90516 5.21777L9.8202 5.30273H7.49989H5.17958L5.09462 5.21777C4.95692 5.07715 4.98915 4.82227 5.15907 4.72852C5.21473 4.69629 5.67176 4.69043 7.49403 4.6875C9.45692 4.6875 9.7704 4.69336 9.84364 4.73145ZM7.96864 6.60645C8.07704 6.66211 8.11512 6.73242 8.11512 6.88477C8.11512 6.98145 8.09755 7.02539 8.03016 7.09277L7.9452 7.17773H6.56239H5.17958L5.09462 7.09277C4.95692 6.95215 4.98915 6.69727 5.15907 6.60352C5.21473 6.57422 5.51063 6.56543 6.55653 6.5625C7.68446 6.5625 7.8954 6.56836 7.96864 6.60645Z" fill="#00ECFF"/>
<path d="M12.46 1.32129C12.2637 1.39746 12.0586 1.59668 11.959 1.81055C11.8828 1.97461 11.8799 1.98926 11.8799 2.54883V3.12012L12.8115 3.12891L13.7432 3.13477L13.7344 2.52832C13.7256 1.9541 13.7227 1.91016 13.6553 1.78711C13.5615 1.60547 13.4033 1.44434 13.2275 1.35352C13.0225 1.24805 12.6768 1.2334 12.46 1.32129Z" fill="#00ECFF"/>
<path d="M12.9053 4.05469C12.8262 4.07519 12.7119 4.11328 12.6562 4.14258C12.6006 4.17187 11.5693 5.17969 10.3652 6.38086L8.17383 8.56934L7.83691 9.41016C7.65234 9.87598 7.5 10.2803 7.5 10.3154C7.5 10.459 7.66699 10.6348 7.80469 10.6348C7.83105 10.6348 8.22949 10.4824 8.69531 10.2979L9.53906 9.96094L11.7363 7.75488C14.1445 5.34375 14.0566 5.44336 14.0859 5.06543C14.1357 4.42383 13.5205 3.89648 12.9053 4.05469Z" fill="#00ECFF"/>
<path d="M10.5762 9.79978C9.9873 10.3886 9.89355 10.4736 9.70898 10.5615C9.40137 10.708 8.59863 11.0302 8.25586 11.1474L7.95703 11.247L8.57812 11.2558L9.19922 11.2646L9.27832 11.3467L9.36035 11.4258L9.375 12.2402L9.38965 13.0517L9.47168 13.2187C9.5625 13.4004 9.71777 13.5586 9.9082 13.6552C10.0605 13.7343 10.3887 13.7607 10.5674 13.7138C10.7314 13.6699 10.9512 13.5175 11.0654 13.3652C11.2529 13.1191 11.25 13.1338 11.2441 11.0361L11.2354 9.1406L10.5762 9.79978Z" fill="#00ECFF"/>
<path d="M1.26562 12.4717C1.27441 13.0664 1.27734 13.084 1.35352 13.2275C1.44727 13.4033 1.6084 13.5615 1.78711 13.6553L1.91895 13.7256L5.4873 13.7344L9.05273 13.7402L8.98535 13.6318C8.94727 13.5703 8.88281 13.4414 8.84473 13.3447C8.7832 13.1836 8.77441 13.1133 8.75977 12.5244L8.74512 11.8799L5.00098 11.8711L1.25684 11.8652L1.26562 12.4717Z" fill="#00ECFF"/>
</svg>
