<?xml version="1.0" encoding="utf-8"?>
<!-- Generator: Adobe Illustrator 24.2.3, SVG Export Plug-In . SVG Version: 6.00 Build 0)  -->
<svg version="1.1" id="Camada_1" xmlns="http://www.w3.org/2000/svg" xmlns:xlink="http://www.w3.org/1999/xlink" x="0px" y="0px"
	 viewBox="0 0 500 500" style="enable-background:new 0 0 500 500;" xml:space="preserve">
<style type="text/css">
	.st0{fill:#00E2F4;}
</style>
<path class="st0" d="M13.6,254.8C13.6,391.6,118.7,483,250,483s236.4-91.5,236.4-228.3c0-66.2-23.8-125.7-60-162.5
	c-110.7-112.4-207-49-230.7,7.2c-4.6,11.1-2.1,20.8,12.3,28.2l192.4,120.5c5.9,3.1,8.2,10.5,5.1,16.4c-1.1,2.2-2.9,3.9-5.1,5.1
	L166.5,384.4c-5.9,3.2-13.3,0.9-16.4-5c-0.9-1.8-1.4-3.7-1.4-5.7V173.2c0-75.1,8.6-102.6,14.8-120.7c4.8-13.7-2.2-18.3-12-13.3
	C134.8,47.5,13.6,127.2,13.6,254.8z"/>
</svg>
