<svg width="16" height="15" viewBox="0 0 16 15" fill="none" xmlns="http://www.w3.org/2000/svg">
<path d="M7.9778 14.9968C5.67868 14.9968 3.65344 14.2807 2.03769 12.6395C0.935496 11.5122 0.243125 10.0601 0.067804 8.50802C-0.2725 5.94452 0.690316 3.8476 2.45824 2.03823C3.02826 1.44568 3.66926 0.922853 4.36727 0.48114C4.44197 0.435024 4.51665 0.383483 4.59689 0.342792C4.73799 0.272262 4.87357 0.18003 5.04234 0.293964C5.21111 0.407897 5.15577 0.578797 5.10597 0.725283C4.867 1.41267 4.72005 2.12756 4.66883 2.85204C4.63286 3.33761 4.58583 3.8259 4.58306 4.31419C4.58306 6.55759 4.58306 8.80099 4.58306 11.0444C4.57747 11.1613 4.58303 11.2785 4.59966 11.3943C4.60457 11.4588 4.62618 11.521 4.66244 11.5749C4.6987 11.6289 4.74842 11.6729 4.80687 11.7028C4.86533 11.7327 4.93058 11.7474 4.99648 11.7457C5.06237 11.7439 5.12674 11.7257 5.18344 11.6927C5.56525 11.5218 5.94151 11.3428 6.31778 11.1502L12.767 8.05772L12.9551 7.96548C13.3314 7.75932 13.3563 7.44464 12.9911 7.21407C12.2358 6.73663 11.4694 6.27276 10.7085 5.80617C9.31412 4.93992 7.91049 4.07728 6.49763 3.21826C6.02175 2.92528 5.94429 2.61332 6.23756 2.09248C6.69103 1.25126 7.44052 0.600017 8.34679 0.259752C9.25306 -0.0805139 10.2545 -0.0866716 11.165 0.242423C13.8045 1.25155 15.3483 3.17757 15.8408 5.89841C16.1983 7.62331 15.9497 9.4161 15.1353 10.9847C14.0286 13.0898 12.2136 14.2996 9.87853 14.8123C9.25561 14.9533 8.61682 15.0153 7.9778 14.9968Z" fill="#00ECFF"/>
</svg>
