<svg width="17" height="8" viewBox="0 0 17 8" fill="none" xmlns="http://www.w3.org/2000/svg">
<g clip-path="url(#clip0_118_72)">
<path d="M16.9209 4.74471C16.9371 4.66537 16.9524 4.58375 16.9634 4.50212C16.9711 4.44338 16.9796 4.38312 16.9847 4.32209C16.9949 4.21453 17.0008 4.10925 17.0008 3.9994C17.0008 3.46007 16.8818 2.93676 16.6447 2.44243C16.592 2.33487 16.5367 2.22959 16.473 2.12432C16.4381 2.06787 16.4041 2.01218 16.3676 1.95649C16.3599 1.94734 16.3548 1.93513 16.3463 1.92598C16.32 1.88631 16.2911 1.84893 16.2647 1.81155C16.2545 1.79477 16.2409 1.77875 16.2299 1.76502L16.2061 1.73679C16.0505 1.53616 15.8737 1.34698 15.6757 1.17152C15.5516 1.06167 15.4224 0.960976 15.2872 0.86562C15.2269 0.823663 15.1665 0.781707 15.1028 0.742038C14.8333 0.57116 14.546 0.42927 14.24 0.31408C13.6833 0.106585 13.0891 -0.000976562 12.4797 -0.000976562H12.4355C11.8464 0.00360053 11.282 0.104297 10.7567 0.300349C10.744 0.304926 10.7304 0.309503 10.7202 0.31408C10.7202 0.31408 10.7151 0.31408 10.7151 0.316369H10.71C10.636 0.344594 10.5646 0.375108 10.4966 0.405622C10.4439 0.428508 10.3912 0.452156 10.3402 0.478093C10.3241 0.484958 10.3062 0.494875 10.2901 0.50403C10.0767 0.60854 9.87275 0.728307 9.68065 0.861043C9.554 0.954111 9.4299 1.04794 9.31345 1.14787C9.435 1.28519 9.5506 1.42631 9.66195 1.56363L9.7512 1.67805L10.0997 2.12661C10.3453 2.44395 10.6437 2.82462 10.8332 3.07025C11.0916 2.7941 11.3271 2.61026 11.6144 2.47905C11.6195 2.47676 11.6246 2.47447 11.6305 2.47218C11.6654 2.45769 11.6994 2.44167 11.7334 2.42794C11.968 2.34173 12.2213 2.29749 12.4746 2.29749C12.5349 2.29749 12.5961 2.29978 12.6565 2.30435H12.6616C12.8537 2.32114 13.0466 2.36309 13.226 2.4287C13.4555 2.5149 13.6612 2.63696 13.838 2.79487C13.8431 2.79944 13.8456 2.80402 13.8507 2.80631C13.9323 2.88107 14.0063 2.9604 14.0726 3.04432C14.144 3.1351 14.2018 3.2335 14.2519 3.33649C14.3522 3.54703 14.4024 3.76826 14.4024 3.9994C14.4024 4.09095 14.3922 4.17715 14.376 4.26564C14.3522 4.40371 14.3123 4.53645 14.2494 4.66232C14.2281 4.70657 14.2043 4.75081 14.178 4.79506C14.0887 4.94457 13.9748 5.08189 13.8371 5.20547C13.6603 5.36185 13.4546 5.4862 13.2251 5.5724C12.7474 5.75243 12.1771 5.7448 11.7368 5.57698C11.1112 5.33668 10.755 4.89728 10.0113 3.92617C9.9875 3.89337 8.6649 2.19374 8.6649 2.19145C8.0291 1.4019 7.3695 0.73441 6.29 0.318657C5.73835 0.106585 5.14165 -0.000976562 4.51945 -0.000976562C4.1021 -0.000976562 3.6958 0.0501343 3.30055 0.148542C3.213 0.169139 3.12885 0.192787 3.0447 0.218724C3.03705 0.221013 3.026 0.223301 3.01835 0.22559C2.9308 0.253815 2.8441 0.28204 2.75995 0.31408C2.2219 0.514709 1.7391 0.804592 1.3243 1.17152C0.9095 1.53769 0.5831 1.96489 0.35615 2.44167C0.1207 2.93447 0 3.46083 0 3.9994C0 4.28471 0.034 4.56239 0.1003 4.83549C0.1581 5.08036 0.24565 5.32371 0.35615 5.55714C0.41395 5.67615 0.47685 5.79286 0.5457 5.905C0.5508 5.91416 0.55845 5.92636 0.56695 5.93552C0.7701 6.26278 1.02595 6.56105 1.32685 6.82805C1.74165 7.19422 2.22445 7.48181 2.7625 7.68473C2.8815 7.72897 3.0022 7.76941 3.1263 7.80373C3.14755 7.8106 3.1688 7.81518 3.18665 7.82204C3.2079 7.82662 3.22915 7.8312 3.2504 7.83882C3.4459 7.88994 3.6431 7.9296 3.8471 7.95554C3.8658 7.95783 3.88705 7.96012 3.9049 7.96241C3.96015 7.96927 4.01625 7.97614 4.07065 7.98071C4.2211 7.99521 4.37155 7.99979 4.52455 7.99979C5.134 7.99979 5.7171 7.8968 6.25855 7.69388C6.2662 7.69159 6.27725 7.68702 6.2849 7.68473H6.29C6.29 7.68473 6.2951 7.68473 6.29765 7.68244C6.3716 7.65421 6.443 7.62446 6.5144 7.59395C6.5671 7.57106 6.6198 7.54742 6.66995 7.52148C6.6861 7.51461 6.70225 7.50699 6.71755 7.49783C6.9309 7.39256 7.1349 7.27355 7.327 7.14082H7.32445C7.45365 7.04699 7.5752 6.95392 7.6908 6.85322C7.5378 6.67853 7.39245 6.50079 7.25815 6.32991L7.2029 6.25973L6.171 4.93084C5.87775 5.24361 5.61425 5.44043 5.27085 5.57316C5.03625 5.65936 4.78295 5.70361 4.52965 5.70361C4.27635 5.70361 4.0154 5.65936 3.7774 5.57087C3.7196 5.54951 3.66435 5.52663 3.61165 5.4984C3.44845 5.42136 3.30055 5.32142 3.1654 5.20471C2.9886 5.04832 2.84835 4.866 2.7506 4.66308C2.6928 4.54179 2.65285 4.41287 2.62905 4.28471C2.61035 4.19164 2.60015 4.09552 2.60015 4.00017C2.60015 3.76902 2.6503 3.5478 2.7506 3.33725C2.84835 3.13433 2.9852 2.95201 3.1654 2.79563C3.30225 2.67434 3.45865 2.57364 3.6244 2.4943C3.67455 2.47142 3.7247 2.45006 3.7774 2.42946H3.7825C3.8488 2.40581 3.91425 2.38522 3.98055 2.36843C4.41065 2.25858 4.8858 2.28223 5.26575 2.42717C5.70945 2.59729 6.01545 2.86886 6.42175 3.35403H6.42685L8.2586 5.70971C8.9182 6.54351 9.588 7.24838 10.7125 7.68015C11.2642 7.89299 11.8609 8.00055 12.4831 8.00055C13.1053 8.00055 13.6841 7.89528 14.2434 7.68473C14.6999 7.51461 15.1172 7.27889 15.4861 6.98901C15.4887 6.98672 15.4938 6.98443 15.4963 6.98214C15.5567 6.93332 15.6179 6.88374 15.6757 6.83034C16.0896 6.46417 16.4169 6.03621 16.6438 5.56019C16.7705 5.29625 16.8631 5.02315 16.9209 4.74547H16.9184L16.9209 4.74471Z" fill="#00ECFF"/>
</g>
<defs>
<clipPath id="clip0_118_72">
<rect width="17" height="8" fill="white"/>
</clipPath>
</defs>
</svg>
