<svg width="16" height="16" viewBox="0 0 16 16" fill="none" xmlns="http://www.w3.org/2000/svg">
<g clip-path="url(#clip0_118_101)">
<path d="M15.0921 0C15.3457 0 15.5569 0.104431 15.7257 0.31421C15.9089 0.5075 16.0001 0.749342 16.0001 1.03973V8.24459C16.0001 8.53498 15.9089 8.78507 15.7257 8.99393C15.5569 9.18722 15.3457 9.28432 15.0921 9.28432H8.80009C8.54649 9.28432 8.32809 9.18722 8.14569 8.99393C7.97689 8.78415 7.89209 8.53407 7.89209 8.24459V1.03973C7.89209 0.749342 7.97689 0.5075 8.14569 0.31421C8.32889 0.104431 8.54729 0 8.80009 0L15.0921 0ZM12.4105 2.10329L13.0441 2.82881L12.4105 3.55433L12.8961 4.11039L13.5297 3.38486L14.1633 4.08565L14.6281 3.55342L13.9945 2.82789L14.6281 2.10237L14.1633 1.54632L13.5297 2.27184L12.8961 1.54632L12.4105 2.10237V2.10329ZM9.34889 2.44223V3.21631H11.6081V2.44223H9.34889ZM11.7137 6.69735V5.92328H10.8273V4.90736H10.1513V5.92328H9.24329V6.69735H10.1513V7.73709H10.8273V6.69735H11.7137ZM14.6489 7.35051V6.57643H12.3897V7.35051H14.6489ZM14.6489 6.06893V5.29486H12.3897V6.06893H14.6489Z" fill="#00ECFF"/>
<path d="M1.5312 12.8569C2.5696 12.3733 3.5632 12.1314 4.5136 12.1314C5.464 12.1314 6.4488 12.3733 7.4696 12.8569C8.508 13.3205 9.0272 13.9352 9.0272 14.701V16.0009H0V14.701C0 13.9352 0.5104 13.3205 1.5312 12.8569ZM6.0968 10.0767C5.6568 10.5805 5.1288 10.8324 4.5128 10.8324C3.8968 10.8324 3.3688 10.5805 2.9288 10.0767C2.4888 9.57285 2.2688 8.96825 2.2688 8.26288C2.2688 7.55751 2.4888 6.95291 2.9288 6.44907C3.3688 5.92508 3.8968 5.66309 4.5128 5.66309C5.1288 5.66309 5.6568 5.92508 6.0968 6.44907C6.5368 6.95291 6.7568 7.55751 6.7568 8.26288C6.7568 8.96825 6.5368 9.57285 6.0968 10.0767Z" fill="#00ECFF"/>
</g>
<defs>
<clipPath id="clip0_118_101">
<rect width="16" height="16" fill="white"/>
</clipPath>
</defs>
</svg>
