<svg width="16" height="16" viewBox="0 0 16 16" fill="none" xmlns="http://www.w3.org/2000/svg">
<mask id="mask0_112_824" style="mask-type:alpha" maskUnits="userSpaceOnUse" x="0" y="0" width="16" height="16">
<rect width="16" height="16" fill="#D9D9D9"/>
</mask>
<g mask="url(#mask0_112_824)">
<path d="M8 6.01667C8.95555 6.01667 9.94167 5.87222 10.9583 5.58333C11.975 5.29444 12.5444 4.99444 12.6667 4.68333C12.5444 4.36111 11.9861 4.05556 10.9917 3.76667C9.99722 3.47778 9 3.33333 8 3.33333C6.98889 3.33333 5.99722 3.475 5.025 3.75833C4.05278 4.04167 3.48889 4.35 3.33333 4.68333C3.5 5.00556 4.08056 5.30833 5.075 5.59167C6.06944 5.875 7.04444 6.01667 8 6.01667ZM6.98333 12.6167C7.09444 12.8722 7.22222 13.1167 7.36667 13.35C7.51111 13.5833 7.67778 13.8 7.86667 14C7.05556 13.9889 6.29167 13.9139 5.575 13.775C4.85833 13.6361 4.23611 13.4472 3.70833 13.2083C3.18056 12.9694 2.76389 12.6889 2.45833 12.3667C2.15278 12.0444 2 11.7 2 11.3333V4.66667C2 4.3 2.15833 3.95556 2.475 3.63333C2.79167 3.31111 3.22222 3.02778 3.76667 2.78333C4.31111 2.53889 4.94722 2.34722 5.675 2.20833C6.40278 2.06944 7.17778 2 8 2C8.82222 2 9.59722 2.06944 10.325 2.20833C11.0528 2.34722 11.6889 2.53889 12.2333 2.78333C12.7778 3.02778 13.2083 3.31111 13.525 3.63333C13.8417 3.95556 14 4.3 14 4.66667C14 5.03333 13.8417 5.37778 13.525 5.7C13.2083 6.02222 12.7778 6.30556 12.2333 6.55C11.6889 6.79444 11.0528 6.98611 10.325 7.125C9.59722 7.26389 8.82222 7.33333 8 7.33333C7.05556 7.33333 6.18333 7.25 5.38333 7.08333C4.58333 6.91667 3.9 6.67222 3.33333 6.35V8.03333C3.77778 8.44444 4.33333 8.74444 5 8.93333C5.66667 9.12222 6.33889 9.24444 7.01667 9.3C6.92778 9.46667 6.85556 9.65833 6.8 9.875C6.74444 10.0917 6.70556 10.3333 6.68333 10.6C6.01667 10.5222 5.39722 10.4111 4.825 10.2667C4.25278 10.1222 3.75556 9.92778 3.33333 9.68333V11.3333C3.48889 11.6111 3.91667 11.8722 4.61667 12.1167C5.31667 12.3611 6.10556 12.5278 6.98333 12.6167ZM14.4 15.3333L12.6 13.5333C12.3556 13.6778 12.1 13.7917 11.8333 13.875C11.5667 13.9583 11.2889 14 11 14C10.1667 14 9.45833 13.7083 8.875 13.125C8.29167 12.5417 8 11.8333 8 11C8 10.1667 8.29167 9.45833 8.875 8.875C9.45833 8.29167 10.1667 8 11 8C11.8333 8 12.5417 8.29167 13.125 8.875C13.7083 9.45833 14 10.1667 14 11C14 11.2889 13.9583 11.5667 13.875 11.8333C13.7917 12.1 13.6778 12.3556 13.5333 12.6L15.3333 14.4L14.4 15.3333ZM11 12.6667C11.4667 12.6667 11.8611 12.5056 12.1833 12.1833C12.5056 11.8611 12.6667 11.4667 12.6667 11C12.6667 10.5333 12.5056 10.1389 12.1833 9.81667C11.8611 9.49444 11.4667 9.33333 11 9.33333C10.5333 9.33333 10.1389 9.49444 9.81667 9.81667C9.49444 10.1389 9.33333 10.5333 9.33333 11C9.33333 11.4667 9.49444 11.8611 9.81667 12.1833C10.1389 12.5056 10.5333 12.6667 11 12.6667Z" fill="#00ECFF"/>
</g>
</svg>
