<svg width="16" height="16" viewBox="0 0 16 16" fill="none" xmlns="http://www.w3.org/2000/svg">
<g clip-path="url(#clip0_112_816)">
<path d="M7.39054 0.018754C6.52179 0.106255 6.04992 0.200005 5.42179 0.409379C4.37492 0.756254 3.34992 1.3875 2.52492 2.19063C2.11554 2.59063 1.81867 2.20938 5.07179 5.45938C7.85304 8.24375 7.85929 8.25 7.98742 8.25C8.15304 8.25 8.24992 8.15313 8.24992 7.9875C8.24992 7.87813 8.21867 7.8375 7.85304 7.46563L7.45929 7.0625L7.58117 7.00938C7.66554 6.97188 7.78742 6.95313 7.98429 6.95313C8.22179 6.95313 8.29054 6.96563 8.43742 7.03438C8.65617 7.1375 8.86242 7.34375 8.96554 7.5625C9.03429 7.70625 9.04679 7.77813 9.04679 8C9.04679 8.32188 8.96242 8.53125 8.74679 8.74688C8.53117 8.9625 8.32179 9.04688 7.99992 9.04688C7.77804 9.04688 7.70617 9.03438 7.56242 8.96563C7.24367 8.81563 6.99367 8.4875 6.95304 8.15625C6.90929 7.82813 6.85304 7.75 6.65929 7.75C6.42179 7.75 6.34679 7.97813 6.45304 8.39063C6.63742 9.09063 7.28429 9.59375 7.99992 9.59375C8.86867 9.59375 9.59367 8.86875 9.59367 8C9.59367 7.28438 9.09054 6.6375 8.39054 6.45313C8.01867 6.35938 7.56242 6.4125 7.22804 6.59063L7.06867 6.67813L6.50304 6.1125L5.94054 5.54688L6.11867 5.41875C6.72492 4.97813 7.35304 4.79375 8.12492 4.82188C8.98117 4.85313 9.64679 5.14375 10.253 5.74688C10.8499 6.34375 11.1437 7.01563 11.178 7.85313C11.2093 8.59688 11.0437 9.20938 10.6468 9.79688C10.4562 10.0781 10.078 10.4531 9.78742 10.6469C9.55304 10.8031 9.09679 11.0313 9.01242 11.0313C8.99367 11.0313 8.93429 10.9625 8.88117 10.8781C8.77492 10.7156 8.65617 10.6125 8.43742 10.4969C8.31867 10.4344 8.25304 10.4219 7.99992 10.4219C7.74679 10.4219 7.68117 10.4344 7.56242 10.4969C7.34367 10.6125 7.22492 10.7156 7.11867 10.8781C7.06554 10.9625 7.00617 11.0313 6.98742 11.0313C6.96867 11.0313 6.84367 10.9844 6.71242 10.925C6.06242 10.6406 5.46242 10.075 5.14054 9.4375C4.76554 8.7 4.70617 7.7375 4.98429 6.9625C5.18117 6.41875 5.17492 6.44688 5.10304 6.35C4.94992 6.14375 4.73742 6.19063 4.61242 6.45625C4.21867 7.28438 4.17179 8.375 4.48429 9.25C4.77179 10.0438 5.31867 10.7219 6.04679 11.1781C6.23117 11.2938 6.62804 11.4781 6.80929 11.5344C6.90929 11.5625 6.94367 11.5906 6.95617 11.6531C7.03117 11.9875 7.25929 12.2813 7.55617 12.4281C7.70929 12.5031 7.77179 12.5156 7.99992 12.5156C8.22804 12.5156 8.29054 12.5031 8.44367 12.4281C8.74054 12.2813 8.96867 11.9875 9.04367 11.6531C9.05617 11.5906 9.09054 11.5625 9.19367 11.5344C9.82179 11.3438 10.5562 10.8094 10.9968 10.2188C11.7155 9.25625 11.9155 7.95938 11.528 6.79688C11.1562 5.68438 10.1874 4.75313 9.05617 4.425C8.63742 4.30313 8.32492 4.27188 7.81554 4.29063C7.00617 4.32188 6.37804 4.55625 5.66242 5.09375L5.55929 5.16875L4.99679 4.60938L4.43429 4.04688L4.56867 3.92813C4.91554 3.62188 5.59679 3.21875 6.09992 3.01875C7.15929 2.6 8.47804 2.56563 9.64054 2.92813C9.93429 3.01875 10.5624 3.3125 10.8218 3.48125C10.9968 3.59375 11.003 3.60313 10.978 3.69688C10.9655 3.75313 10.953 3.90313 10.953 4.03125C10.9562 4.31875 11.0468 4.54375 11.253 4.74688C11.4562 4.95313 11.6812 5.04375 11.9687 5.04688C12.0968 5.04688 12.2468 5.03438 12.303 5.02188C12.3968 4.99688 12.4062 5.00313 12.5187 5.17813C12.6874 5.4375 12.9812 6.06563 13.0718 6.35938C13.1968 6.75938 13.278 7.18438 13.3093 7.59688C13.528 10.5438 11.3124 13.1063 8.36867 13.3094C5.43429 13.5156 2.89679 11.3031 2.68742 8.3625C2.61242 7.26563 2.86554 6.21875 3.45304 5.21563C3.53117 5.0875 3.59367 4.94688 3.59367 4.90938C3.59367 4.80938 3.43117 4.65625 3.32492 4.65625C3.03117 4.65625 2.41867 5.925 2.23742 6.90625C2.12179 7.53125 2.11554 8.35313 2.21867 8.96875C2.39992 10.0406 2.88742 11.0531 3.62804 11.8938C4.36554 12.7375 5.44367 13.3938 6.53117 13.6719C7.06242 13.8063 7.41867 13.85 7.99992 13.85C8.58117 13.85 8.93742 13.8063 9.46867 13.6719C10.5562 13.3938 11.6343 12.7375 12.3718 11.8938C13.4405 10.6781 13.9624 9.14375 13.8405 7.5625C13.7655 6.58438 13.4718 5.69063 12.9624 4.8875L12.8374 4.68438L12.9405 4.475C13.0374 4.2875 13.0468 4.24375 13.0468 4.00313C13.0468 3.67813 12.9624 3.46875 12.7468 3.25313C12.5312 3.0375 12.3218 2.95313 11.9968 2.95313C11.7562 2.95313 11.7124 2.9625 11.5249 3.05938L11.3155 3.1625L11.1124 3.0375C10.078 2.38438 8.80929 2.06563 7.60929 2.15625C7.13117 2.19375 7.08429 2.2 6.64367 2.3C5.77179 2.50313 4.92804 2.93125 4.22492 3.525L4.05929 3.66875L3.49367 3.10313L2.93117 2.54063L3.07804 2.40313C4.07492 1.48438 5.32492 0.87188 6.67179 0.643754C9.97804 0.0843792 13.2218 1.725 14.6874 4.7C15.0499 5.4375 15.2718 6.15 15.3937 6.95313C15.4593 7.39688 15.4687 8.40938 15.4124 8.875C15.2655 10.0469 14.8405 11.1844 14.1843 12.1625C13.9655 12.4906 13.9874 12.4781 13.7999 12.3844C13.5687 12.2656 13.2124 12.25 12.953 12.3438C12.6968 12.4406 12.4405 12.6969 12.3437 12.9531C12.2499 13.2125 12.2655 13.5688 12.3843 13.8C12.478 13.9875 12.4905 13.9656 12.1718 14.1781C11.1812 14.8438 10.053 15.2625 8.87492 15.4125C8.40929 15.4688 7.39679 15.4594 6.95304 15.3938C3.93742 14.9406 1.50929 12.7563 0.765541 9.83125C0.287416 7.94375 0.553041 6.02188 1.53429 4.27813C1.63429 4.09688 1.71867 3.90938 1.71867 3.8625C1.71867 3.68125 1.44992 3.55313 1.30617 3.6625C1.23742 3.71875 1.03429 4.05938 0.840541 4.44375C-0.128209 6.37188 -0.259459 8.7125 0.487416 10.7469C0.624916 11.1219 1.00929 11.9094 1.20617 12.2188C1.84367 13.2219 2.77804 14.1563 3.78117 14.7938C4.09054 14.9906 4.87804 15.375 5.25304 15.5125C5.67492 15.6688 6.31554 15.8313 6.81242 15.9094C7.32492 15.9938 8.40929 16.0094 8.93742 15.9406C10.2655 15.7719 11.528 15.2844 12.603 14.525C12.8874 14.3219 12.9155 14.3094 13.0093 14.3375C13.2062 14.4 13.3499 14.4094 13.5249 14.375C14.1687 14.2438 14.5312 13.6375 14.3374 13.0094C14.3093 12.9156 14.3218 12.8875 14.5249 12.6031C15.2843 11.5281 15.7718 10.2656 15.9405 8.9375C16.0093 8.40938 15.9937 7.325 15.9093 6.8125C15.7718 5.95625 15.5499 5.25625 15.1718 4.48438C14.7593 3.64375 14.3312 3.04688 13.6437 2.35625C12.953 1.66875 12.3562 1.24063 11.5155 0.82813C10.3999 0.281255 9.40304 0.0406294 8.15617 0.018754C7.80304 0.0125046 7.45929 0.0125046 7.39054 0.018754ZM12.2499 3.54063C12.4093 3.625 12.5312 3.82188 12.5312 3.99375C12.5312 4.13438 12.4218 4.36563 12.3405 4.39063C12.3093 4.40313 12.2812 4.42188 12.2812 4.4375C12.2812 4.475 12.103 4.53125 11.9843 4.53125C11.9312 4.53125 11.8249 4.5 11.7499 4.45938C11.5905 4.375 11.4687 4.17813 11.4687 4C11.4687 3.82188 11.5905 3.625 11.7499 3.54063C11.9218 3.45 12.078 3.45 12.2499 3.54063ZM8.24992 11.0094C8.58117 11.1844 8.62179 11.6125 8.33429 11.8656C8.06867 12.0969 7.64992 11.9969 7.51242 11.6656C7.37179 11.3344 7.63742 10.9375 7.99992 10.9375C8.06242 10.9375 8.17492 10.9688 8.24992 11.0094ZM13.5905 12.8781C13.8968 13.05 13.953 13.4594 13.7062 13.7063C13.5124 13.9 13.2437 13.9094 13.0124 13.7344C12.8718 13.625 12.8124 13.5031 12.8124 13.3188C12.8124 12.9281 13.2468 12.6844 13.5905 12.8781Z" fill="#00ECFF"/>
</g>
<defs>
<clipPath id="clip0_112_816">
<rect width="16" height="16" fill="white"/>
</clipPath>
</defs>
</svg>
