<svg width="16" height="16" viewBox="0 0 16 16" fill="none" xmlns="http://www.w3.org/2000/svg">
<g clip-path="url(#clip0_112_874)">
<path d="M3.85834 16C3.25594 16 2.69194 15.7664 2.26874 15.3416C1.84554 14.9176 1.61274 14.3544 1.61434 13.7552C1.61834 10.9088 1.62954 7.7272 1.63674 6.652C1.63914 6.2592 1.54074 5.8712 1.35194 5.5272L1.13194 5.1696C0.773545 4.6664 0.723145 4.0904 0.723145 3.5424V0.756C0.723145 0.3384 1.06154 0 1.47914 0C1.89674 0 2.23514 0.3384 2.23514 0.756V3.5432C2.23514 4.0752 2.30394 4.2128 2.36794 4.2992C2.38074 4.3168 2.39274 4.3344 2.40394 4.3528L2.64794 4.7488C2.65354 4.7576 2.65914 4.7672 2.66394 4.7768C2.98554 5.352 3.15274 6.004 3.14794 6.6624C3.14074 7.7352 3.12954 10.9128 3.12554 13.7568C3.12554 13.952 3.20074 14.1352 3.33834 14.2728C3.61514 14.5504 4.10154 14.548 4.37594 14.2728C4.51354 14.1352 4.58874 13.952 4.58874 13.7568C4.58474 10.7104 4.57274 7.628 4.56634 6.6616C4.56154 6.004 4.72874 5.352 5.05034 4.776C5.05594 4.7664 5.06154 4.7576 5.06714 4.748L5.31114 4.3512C5.32234 4.3328 5.33434 4.3152 5.34714 4.2976C5.41114 4.2104 5.47994 4.0736 5.47994 3.5408V0.756C5.47994 0.3384 5.81834 0 6.23594 0C6.65354 0 6.99194 0.3384 6.99194 0.756V3.5432C6.99194 4.0912 6.94155 4.6672 6.58315 5.1704L6.36314 5.528C6.17354 5.872 6.07594 6.26 6.07835 6.652C6.08474 7.62 6.09675 10.7064 6.10075 13.7552C6.10154 14.3544 5.86874 14.9176 5.44554 15.3416C5.02154 15.7656 4.45834 15.9992 3.85834 15.9992V16Z" fill="#00ECFF"/>
<path d="M3.85756 4.3416C3.43996 4.3416 3.10156 4.0032 3.10156 3.5856V0.756C3.10156 0.3384 3.43996 0 3.85756 0C4.27516 0 4.61356 0.3384 4.61356 0.756V3.5856C4.61356 4.0032 4.27516 4.3416 3.85756 4.3416Z" fill="#00ECFF"/>
<path d="M5.41844 4.69523H2.29604C1.87844 4.69523 1.54004 4.35683 1.54004 3.93923C1.54004 3.52163 1.87844 3.18323 2.29604 3.18323H5.41924C5.83684 3.18323 6.17524 3.52163 6.17524 3.93923C6.17524 4.35683 5.83684 4.69523 5.41924 4.69523H5.41844Z" fill="#00ECFF"/>
<path d="M11.0553 15.156C10.5993 14.6192 10.4025 13.9128 10.5161 13.2176L11.1713 9.2056C10.3369 9.056 9.70166 8.324 9.70166 7.4472V4.0608C9.70166 1.8208 11.5225 0 13.7609 0C14.5969 0 15.2769 0.68 15.2769 1.5168V13.604C15.2769 14.9256 14.2017 16.0008 12.8809 16.0008C12.1769 16.0008 11.5113 15.6928 11.0553 15.1568V15.156ZM11.2137 4.06V7.4464C11.2137 7.5976 11.3369 7.7208 11.4881 7.7208H12.0561C12.2777 7.7208 12.4881 7.8184 12.6321 7.9872C12.7753 8.156 12.8377 8.38 12.8025 8.5984L12.0089 13.46C11.9665 13.72 12.0369 13.9744 12.2081 14.1752C12.3793 14.376 12.6185 14.4864 12.8817 14.4864C13.3689 14.4864 13.7657 14.0896 13.7657 13.6024L13.7617 1.5112C12.3569 1.5112 11.2145 2.6544 11.2145 4.0584L11.2137 4.06Z" fill="#00ECFF"/>
</g>
<defs>
<clipPath id="clip0_112_874">
<rect width="16" height="16" fill="white"/>
</clipPath>
</defs>
</svg>
