<svg width="14" height="14" viewBox="0 0 14 14" fill="none" xmlns="http://www.w3.org/2000/svg">
<g clip-path="url(#clip0_183_184)">
<path d="M5.35938 0.574219V1.1457L5.24453 1.17578C5.00117 1.23594 4.67578 1.37539 4.45156 1.51484C4.41055 1.53945 4.34219 1.48477 3.99766 1.14023L3.5957 0.738281L3.20469 1.1293L2.81641 1.51758L3.21289 1.91406C3.43164 2.13281 3.60938 2.31875 3.60938 2.32969C3.60938 2.33789 3.56836 2.41992 3.51641 2.50742C3.4207 2.67148 3.30313 2.96406 3.25391 3.16367L3.22383 3.28125H2.65234H2.07812V3.82812V4.375H2.65234H3.22383L3.25391 4.48984C3.30313 4.69219 3.4207 4.98477 3.51641 5.14883C3.56836 5.23633 3.60938 5.31836 3.60938 5.32656C3.60938 5.3375 3.43164 5.52344 3.21289 5.74219L2.81641 6.13867L3.20469 6.52695L3.5957 6.91797L3.99492 6.51875L4.39687 6.1168L4.64023 6.23984C4.8918 6.36836 5.04766 6.43125 5.24453 6.48047L5.35938 6.51055V7.08203V7.65625H5.90625H6.45312V7.08203V6.51055L6.5707 6.48047C6.74023 6.43945 7.10391 6.2918 7.2543 6.20156C7.32539 6.16055 7.39375 6.125 7.40469 6.125C7.41563 6.125 7.60156 6.30273 7.82031 6.52148L8.2168 6.91797L8.60508 6.52969L8.99609 6.13867L8.59687 5.73945L8.19492 5.3375L8.31797 5.09414C8.44648 4.84258 8.50938 4.68672 8.55859 4.48984L8.58867 4.375H9.16016H9.73438V3.82812V3.28125H9.16016H8.58867L8.55859 3.16367C8.51758 2.99414 8.36992 2.63047 8.27969 2.48008C8.23867 2.40898 8.20312 2.34063 8.20312 2.32969C8.20312 2.31875 8.38086 2.13281 8.59961 1.91406L8.99609 1.51758L8.60781 1.1293L8.2168 0.738281L7.81484 1.14023L7.41289 1.54219L7.30898 1.48203C7.0875 1.34805 6.83867 1.24414 6.5707 1.17578L6.45312 1.1457V0.574219V0H5.90625H5.35938V0.574219ZM6.3 2.24219C6.60898 2.32148 6.81953 2.4418 7.05469 2.67969C7.29258 2.91484 7.41289 3.12539 7.49219 3.43438C7.59062 3.81992 7.53867 4.24102 7.35 4.60195C7.22969 4.82617 6.89883 5.15703 6.68008 5.27188C6.31641 5.46328 5.89805 5.5125 5.5125 5.41406C5.20898 5.3375 4.9957 5.21445 4.75781 4.97656C4.51992 4.74141 4.39961 4.53359 4.32031 4.22187C4.22187 3.83633 4.27109 3.41797 4.4625 3.0543C4.57734 2.83555 4.9082 2.50469 5.13242 2.38438C5.49336 2.19297 5.91445 2.14375 6.3 2.24219Z" fill="#00ECFF"/>
<path d="M5.7204 3.31124C5.58915 3.34952 5.42236 3.52999 5.38407 3.66944C5.32118 3.9128 5.41689 4.1671 5.6247 4.29562C5.78056 4.39405 6.04579 4.38858 6.19892 4.28741C6.36845 4.1753 6.43954 4.04132 6.43954 3.82804C6.43954 3.61749 6.36845 3.48077 6.20712 3.37413C6.08954 3.29483 5.86532 3.26749 5.7204 3.31124Z" fill="#00ECFF"/>
<path d="M11.2027 7.58789C10.8172 7.66172 10.4809 7.79844 10.1445 8.01719C10.0379 8.08555 9.69336 8.4 9.29688 8.79375L8.62695 9.45273L8.50391 9.26133C8.35898 9.03437 8.13477 8.84023 7.86953 8.70625C7.53047 8.53398 7.49492 8.53125 5.66016 8.53125C3.8418 8.53125 3.78984 8.53672 3.46719 8.69531C3.23203 8.81289 3.15273 8.87578 2.78906 9.23125C2.61406 9.40352 2.43086 9.55937 2.37344 9.58125C2.28594 9.61953 2.1 9.625 1.13477 9.625H0V11.8125V14L4.1918 13.9945L8.38086 13.9863L8.55859 13.9234C8.94687 13.784 8.9332 13.7949 11.5309 11.2L14 8.73633L13.8277 8.56406C13.3164 8.03906 12.8707 7.76016 12.3184 7.62617C12.023 7.55234 11.4844 7.53594 11.2027 7.58789ZM12.1762 8.72266C12.2773 8.75273 12.3594 8.78828 12.3594 8.79922C12.3594 8.81016 11.457 9.7207 10.3578 10.8199C8.95234 12.2227 8.32344 12.8352 8.25234 12.8652C8.16211 12.9008 7.73008 12.9062 4.62109 12.9062H1.09375V11.8125V10.7187H1.70625C2.35156 10.7187 2.51836 10.6996 2.76172 10.6039C3.01328 10.5055 3.19648 10.3715 3.54102 10.0324C3.72422 9.85195 3.91562 9.69062 3.97305 9.66602C4.12344 9.60312 7.19688 9.60312 7.35 9.66602C7.7957 9.85469 7.7957 10.4891 7.35 10.6777C7.26523 10.7105 7.09297 10.7187 6.30273 10.7187H5.35938V11.2684V11.8152L6.42031 11.8043C7.5168 11.7934 7.5332 11.7934 7.80664 11.673C8.0582 11.5637 8.25508 11.3859 9.46094 10.1855C10.6586 8.99609 10.7434 8.9168 10.9375 8.82109C11.0496 8.76641 11.2219 8.70352 11.3203 8.68164C11.5555 8.62969 11.9328 8.64609 12.1762 8.72266Z" fill="#00ECFF"/>
</g>
<defs>
<clipPath id="clip0_183_184">
<rect width="14" height="14" fill="white"/>
</clipPath>
</defs>
</svg>
