<svg width="12" height="12" viewBox="0 0 12 12" fill="none" xmlns="http://www.w3.org/2000/svg">
<g clip-path="url(#clip0_112_852)">
<path d="M4.149 5.45703H1.3206C0.5922 5.45703 0 4.86483 0 4.13643V1.30803C0 0.579627 0.5922 -0.0125732 1.3206 -0.0125732H4.149C4.8774 -0.0125732 5.4696 0.580227 5.4696 1.30803V4.13643C5.4696 4.86483 4.8774 5.45703 4.149 5.45703ZM1.3206 1.17843C1.2492 1.17843 1.191 1.23663 1.191 1.30803V4.13643C1.191 4.20783 1.2492 4.26543 1.3206 4.26543H4.149C4.2204 4.26543 4.2786 4.20783 4.2786 4.13643V1.30803C4.2786 1.23663 4.2204 1.17843 4.149 1.17843H1.3206Z" fill="#00ECFF"/>
<path d="M10.6794 5.45703H7.85038C7.12258 5.45703 6.52979 4.86483 6.52979 4.13643V1.30803C6.53039 0.579627 7.12259 -0.0125732 7.85099 -0.0125732H10.68C11.4078 -0.0125732 12.0006 0.580227 12.0006 1.30803V4.13643C12.0006 4.86483 11.4084 5.45703 10.68 5.45703H10.6794ZM7.85099 1.17843C7.77959 1.17843 7.72198 1.23663 7.72198 1.30803V4.13643C7.72198 4.20783 7.78019 4.26543 7.85099 4.26543H10.68C10.7514 4.26543 10.809 4.20783 10.809 4.13643V1.30803C10.809 1.23663 10.7508 1.17843 10.68 1.17843H7.85099Z" fill="#00ECFF"/>
<path d="M4.149 12.0126H1.3206C0.5922 12.0126 0 11.4198 0 10.692V7.86357C0 7.13517 0.5922 6.54297 1.3206 6.54297H4.149C4.8774 6.54297 5.4696 7.13517 5.4696 7.86357V10.692C5.4696 11.4204 4.8774 12.0126 4.149 12.0126ZM1.3206 7.73397C1.2492 7.73397 1.191 7.79157 1.191 7.86297V10.6914C1.191 10.7628 1.2492 10.821 1.3206 10.821H4.149C4.2204 10.821 4.2786 10.7628 4.2786 10.6914V7.86297C4.2786 7.79157 4.2204 7.73397 4.149 7.73397H1.3206Z" fill="#00ECFF"/>
<path d="M10.6795 12.0126H7.85112C7.12272 12.0126 6.53052 11.4198 6.53052 10.692V7.86357C6.53052 7.13517 7.12272 6.54297 7.85112 6.54297H10.6795C11.4079 6.54297 12.0001 7.13517 12.0001 7.86357V10.692C12.0001 11.4204 11.4079 12.0126 10.6795 12.0126ZM7.85112 7.73397C7.77972 7.73397 7.72152 7.79157 7.72152 7.86297V10.6914C7.72152 10.7628 7.77972 10.821 7.85112 10.821H10.6795C10.7509 10.821 10.8091 10.7628 10.8091 10.6914V7.86297C10.8091 7.79157 10.7509 7.73397 10.6795 7.73397H7.85112Z" fill="#00ECFF"/>
</g>
<defs>
<clipPath id="clip0_112_852">
<rect width="12" height="12" fill="white"/>
</clipPath>
</defs>
</svg>
