<svg width="16" height="16" viewBox="0 0 16 16" fill="none" xmlns="http://www.w3.org/2000/svg">
<g clip-path="url(#clip0_112_869)">
<path d="M9.53755 3.26801H3.16235V4.67361H9.53755V3.26801Z" fill="#00ECFF"/>
<path d="M7.23048 9.07122C7.06408 9.00482 6.82648 8.92883 6.52008 8.84403V7.98242C6.68648 8.04162 6.78088 8.17122 6.80328 8.37122H7.82008C7.79368 8.02322 7.66808 7.75123 7.44248 7.55443C7.21688 7.35843 6.90968 7.24483 6.52088 7.21523V6.76562H6.16488V7.21523C5.77208 7.24163 5.45128 7.35603 5.20088 7.56003C4.95048 7.76402 4.82568 8.03442 4.82568 8.37122C4.82568 8.64162 4.89048 8.85442 5.02008 9.01042C5.14968 9.16562 5.30008 9.27923 5.47288 9.34963C5.64488 9.42003 5.87608 9.49203 6.16488 9.56643V10.4448C5.97208 10.3816 5.86488 10.2392 5.84248 10.0168H4.83128C4.84648 10.3648 4.97368 10.64 5.21448 10.8416C5.45528 11.044 5.77208 11.1616 6.16408 11.1944V11.6504H6.52008V11.2008C6.80088 11.1896 7.04488 11.1296 7.25048 11.02C7.45608 10.9112 7.61208 10.7696 7.71768 10.5976C7.82328 10.4256 7.87608 10.2376 7.87608 10.0336C7.87608 9.76722 7.80968 9.55682 7.67928 9.40322C7.54728 9.24962 7.39848 9.13923 7.23128 9.07203L7.23048 9.07122ZM6.16408 8.72722C6.05608 8.67922 5.97448 8.62322 5.91688 8.56002C5.85928 8.49682 5.83128 8.41923 5.83128 8.32643C5.83128 8.21843 5.86088 8.13442 5.92008 8.07362C5.97928 8.01282 6.06088 7.97283 6.16488 7.95442V8.72643L6.16408 8.72722ZM6.78408 10.3272C6.71928 10.3976 6.63128 10.4424 6.52088 10.46V9.67122C6.63928 9.71522 6.72888 9.76803 6.78968 9.82963C6.85128 9.89043 6.88168 9.96962 6.88168 10.0656C6.88168 10.1688 6.84888 10.2568 6.78488 10.3272H6.78408Z" fill="#00ECFF"/>
<path d="M16 3.17042C16 1.47762 14.6608 0.0960239 12.9872 0.0192239V0.0120239H1.9712C0.884 0.0120239 0 0.896824 0 1.98402V15.988H9.7728L12.9864 12.7744V6.46722H15.9992V3.17042H16ZM11.5808 12.192L9.1904 14.5816H1.4056V1.98402C1.4056 1.67202 1.6592 1.41842 1.9712 1.41842H11.5808V12.1928V12.192ZM14.5944 5.06162H12.9872V1.43282C13.8848 1.50802 14.5944 2.25442 14.5944 3.17042V5.06162Z" fill="#00ECFF"/>
</g>
<defs>
<clipPath id="clip0_112_869">
<rect width="16" height="16" fill="white"/>
</clipPath>
</defs>
</svg>
