<svg width="11" height="11" viewBox="0 0 11 11" fill="none" xmlns="http://www.w3.org/2000/svg">
<g clip-path="url(#clip0_183_162)">
<path d="M5.10259 0.012886C4.27329 0.0923786 3.6481 0.272847 2.96919 0.623043C1.93364 1.16015 1.0979 2.01308 0.580127 3.06152C0.380322 3.46328 0.287939 3.71035 0.182666 4.10566C0.0537598 4.6041 0.0150879 4.90703 0.0129395 5.45703C0.0129395 5.73203 0.0236816 6.02851 0.0387207 6.14453C0.156885 7.02539 0.431885 7.78378 0.893799 8.49277L1.04849 8.73125L0.706885 9.73886C0.517822 10.2953 0.367432 10.7508 0.371729 10.7551C0.376025 10.7594 0.844385 10.6133 1.41587 10.4307C1.98735 10.248 2.46216 10.0977 2.4729 10.0977C2.48149 10.0977 2.56958 10.1471 2.66841 10.2094C2.76724 10.2695 2.97349 10.3812 3.12603 10.4543C4.51606 11.1182 6.10376 11.1762 7.52603 10.6111C9.13735 9.97304 10.3749 8.57441 10.8174 6.89433C10.9528 6.37871 10.985 6.09726 10.985 5.5C10.985 4.90273 10.9528 4.62128 10.8174 4.10566C10.2975 2.13554 8.71841 0.603706 6.72466 0.137496C6.3895 0.0601521 6.04146 0.0193319 5.61821 0.012886C5.38189 0.00858974 5.14985 0.00858974 5.10259 0.012886ZM3.79204 2.56093C3.82856 2.58027 3.87798 2.63183 3.90376 2.6791C3.96606 2.79296 4.49028 4.0498 4.50532 4.12714C4.52466 4.22382 4.42798 4.38925 4.21528 4.62988C3.99185 4.88125 3.94458 4.96074 3.96392 5.05097C4.00044 5.21425 4.49673 5.87382 4.80396 6.16386C5.27876 6.61289 5.99634 7.04043 6.31646 7.06406C6.48188 7.0748 6.53989 7.02968 6.79341 6.69453C6.90728 6.54199 7.02759 6.38945 7.06411 6.35507C7.14575 6.27128 7.26821 6.2541 7.40786 6.30566C7.58403 6.37226 8.6647 6.89863 8.74204 6.95664L8.81509 7.01035L8.8022 7.23808C8.77212 7.82246 8.56587 8.12539 8.02446 8.38964C7.50884 8.64101 7.10493 8.63457 6.31646 8.36171C5.25513 7.99433 4.69439 7.64414 3.93169 6.87714C3.54927 6.49472 3.27856 6.17031 2.96919 5.72558C2.45786 4.99511 2.26235 4.43007 2.32036 3.85644C2.36763 3.39668 2.52876 3.05722 2.85317 2.73281C3.01001 2.57597 3.21411 2.51152 3.52349 2.52226C3.65454 2.52656 3.75122 2.53945 3.79204 2.56093Z" fill="#00ECFF"/>
</g>
<defs>
<clipPath id="clip0_183_162">
<rect width="11" height="11" fill="white"/>
</clipPath>
</defs>
</svg>
