<svg xmlns="http://www.w3.org/2000/svg" id="Layer_1" data-name="Layer 1" viewBox="0 0 772.69 393.55"><defs><style>.cls-1{fill:#00e2f4;}</style></defs><path class="cls-1" d="M505.69,158.67h.73a3.5,3.5,0,0,1,3.5,3.5V273.61a3.5,3.5,0,0,1-3.5,3.5H483.81a3.5,3.5,0,0,1-3.5-3.5V173.79a3.52,3.52,0,0,1,1.86-3.09l21.88-11.62A3.47,3.47,0,0,1,505.69,158.67Z"></path><path class="cls-1" d="M480.31,124.17v18.21a3.5,3.5,0,0,0,5.11,3.11L508,133.76a3.5,3.5,0,0,0,1.89-3.11v-6.48a3.5,3.5,0,0,0-3.5-3.5H483.81A3.5,3.5,0,0,0,480.31,124.17Z"></path><path class="cls-1" d="M621.74,244.85a3.5,3.5,0,0,0-4.07.58,37.4,37.4,0,0,1-27.19,10.95c-16.53,0-29.85-10.61-31.83-28.13h86.81a3.5,3.5,0,0,0,3.5-3.5v-4.64c0-41.2-22.45-64.4-55.52-64.4-35.77,0-64.4,24.92-64.4,62.18s28.63,62.18,64.4,62.18c17.43,0,33.79-5.76,47.11-20.24a3.51,3.51,0,0,0-.92-5.48Zm-32.49-66.93c18.5,0,29.85,10.85,30.1,28.13h-60.7C560.87,189,571.73,177.92,589.25,177.92Z"></path><path class="cls-1" d="M125.92,217.42c0,36.91,28.36,61.6,63.8,61.6s63.8-24.69,63.8-61.6c0-17.87-6.41-33.91-16.19-43.86-29.86-30.34-55.85-13.23-62.26,1.94-1.25,3-.56,5.6,3.32,7.6l51.92,32.51a3.28,3.28,0,0,1,0,5.8l-63.11,31a3.28,3.28,0,0,1-4.82-2.9V195.41c0-20.27,2.32-27.7,4-32.58,1.3-3.69-.6-4.93-3.25-3.6C158.64,161.5,125.92,183,125.92,217.42Z"></path><path class="cls-1" d="M413.54,155.71a66.54,66.54,0,0,0-42.63,15.15c-6.91-10.19-18.18-15.15-33.37-15.15-13.55,0-26.86,4-36.27,15.15h-.49l-22.19-11.78a5.08,5.08,0,0,0-2.44-.41,3.5,3.5,0,0,0-3.5,3.5V273.61a3.5,3.5,0,0,0,3.5,3.5h22.61a3.5,3.5,0,0,0,3.5-3.5V212.46c0-15.79,7.65-30.1,27.14-30.1,14.31,0,20.23,9.62,20.23,24.18v67.07a3.5,3.5,0,0,0,3.5,3.5h22.61a3.5,3.5,0,0,0,3.5-3.5V213c0-15.3,6.91-30.6,25.41-30.6,17.52,0,22,12.83,22,27.63v63.62a3.5,3.5,0,0,0,3.5,3.5h22.6a3.5,3.5,0,0,0,3.5-3.5V206.54C456.22,178.16,445.12,155.71,413.54,155.71Z"></path></svg>